<svg width="50" height="50" viewBox="0 0 50 50" fill="none" xmlns="http://www.w3.org/2000/svg">
<circle cx="25" cy="25" r="25" fill="#04FFB4"/>
<g clip-path="url(#clip0_2047_32)">
<path fill-rule="evenodd" clip-rule="evenodd" d="M25 27.8294L32.0707 34.9C32.4459 35.2752 32.9547 35.486 33.4853 35.486C34.0159 35.486 34.5248 35.2752 34.9 34.9C35.2752 34.5248 35.486 34.016 35.486 33.4854C35.486 32.9548 35.2752 32.4459 34.9 32.0707L27.8267 25L34.8987 17.9294C35.0844 17.7436 35.2316 17.523 35.3321 17.2804C35.4326 17.0377 35.4842 16.7776 35.4842 16.5149C35.4841 16.2522 35.4323 15.9921 35.3317 15.7495C35.2312 15.5068 35.0838 15.2864 34.898 15.1007C34.7122 14.915 34.4917 14.7677 34.249 14.6673C34.0063 14.5668 33.7462 14.5151 33.4835 14.5152C33.2209 14.5153 32.9608 14.567 32.7181 14.6676C32.4755 14.7682 32.255 14.9156 32.0693 15.1014L25 22.172L17.9293 15.1014C17.7449 14.9103 17.5243 14.7578 17.2804 14.6529C17.0364 14.5479 16.774 14.4926 16.5084 14.4902C16.2429 14.4878 15.9795 14.5382 15.7337 14.6387C15.4878 14.7391 15.2644 14.8875 15.0766 15.0752C14.8887 15.2629 14.7401 15.4862 14.6394 15.7319C14.5387 15.9776 14.488 16.241 14.4902 16.5065C14.4924 16.7721 14.5474 17.0346 14.6521 17.2786C14.7568 17.5227 14.9091 17.7434 15.1 17.928L22.1733 25L15.1013 32.072C14.9104 32.2566 14.7581 32.4774 14.6534 32.7214C14.5487 32.9655 14.4937 33.2279 14.4915 33.4935C14.4893 33.7591 14.5401 34.0224 14.6407 34.2681C14.7414 34.5139 14.89 34.7371 15.0779 34.9248C15.2658 35.1125 15.4891 35.2609 15.735 35.3614C15.9808 35.4618 16.2442 35.5123 16.5098 35.5099C16.7753 35.5074 17.0377 35.4521 17.2817 35.3472C17.5256 35.2423 17.7463 35.0898 17.9307 34.8987L25 27.8294Z" fill="black"/>
</g>
<defs>
<clipPath id="clip0_2047_32">
<rect width="32" height="32" fill="white" transform="translate(9 9)"/>
</clipPath>
</defs>
</svg>
