<svg width="148" height="103" viewBox="0 0 148 103" fill="none" xmlns="http://www.w3.org/2000/svg">
<path d="M0 5C0 2.23858 2.23858 0 5 0H148V103H5C2.23858 103 0 100.761 0 98V5Z" fill="#1D1B4C"/>
<path d="M55.4 87.099C54.608 87.099 53.9333 86.9377 53.376 86.615C52.8187 86.2923 52.3897 85.834 52.089 85.24C51.7957 84.6387 51.649 83.931 51.649 83.117C51.649 82.303 51.7957 81.599 52.089 81.005C52.3897 80.411 52.8187 79.9527 53.376 79.63C53.9333 79.3073 54.608 79.146 55.4 79.146C55.95 79.146 56.4413 79.2267 56.874 79.388C57.3067 79.5493 57.6843 79.784 58.007 80.092L57.611 81.005C57.259 80.7043 56.9143 80.488 56.577 80.356C56.247 80.224 55.862 80.158 55.422 80.158C54.586 80.158 53.948 80.4147 53.508 80.928C53.068 81.4413 52.848 82.171 52.848 83.117C52.848 84.063 53.068 84.7963 53.508 85.317C53.948 85.8303 54.586 86.087 55.422 86.087C55.862 86.087 56.247 86.021 56.577 85.889C56.9143 85.757 57.259 85.537 57.611 85.229L58.007 86.142C57.6843 86.45 57.3067 86.6883 56.874 86.857C56.4413 87.0183 55.95 87.099 55.4 87.099ZM61.2847 87.099C60.7933 87.099 60.3643 86.9853 59.9977 86.758C59.631 86.5307 59.345 86.2007 59.1397 85.768C58.9417 85.3353 58.8427 84.822 58.8427 84.228C58.8427 83.6267 58.9417 83.1133 59.1397 82.688C59.345 82.2627 59.631 81.9363 59.9977 81.709C60.3643 81.4743 60.7933 81.357 61.2847 81.357C61.7687 81.357 62.1903 81.478 62.5497 81.72C62.909 81.962 63.1473 82.292 63.2647 82.71H63.1437L63.2537 81.456H64.3317C64.3097 81.6833 64.2877 81.9107 64.2657 82.138C64.251 82.358 64.2437 82.5743 64.2437 82.787V87H63.1327V85.768H63.2537C63.1363 86.1787 62.8943 86.505 62.5277 86.747C62.1683 86.9817 61.754 87.099 61.2847 87.099ZM61.5597 86.23C62.0363 86.23 62.4177 86.0613 62.7037 85.724C62.997 85.3867 63.1437 84.888 63.1437 84.228C63.1437 83.568 62.997 83.073 62.7037 82.743C62.4177 82.4057 62.0363 82.237 61.5597 82.237C61.0757 82.237 60.687 82.4057 60.3937 82.743C60.1077 83.073 59.9647 83.568 59.9647 84.228C59.9647 84.888 60.1077 85.3867 60.3937 85.724C60.6797 86.0613 61.0683 86.23 61.5597 86.23ZM65.8648 87V78.904H66.9758V87H65.8648ZM68.604 87V78.904H69.715V87H68.604ZM74.3749 87V79.245H75.2549L80.0179 85.493H79.7429V79.245H80.8099V87H79.9409L75.1889 80.752H75.4419V87H74.3749ZM84.9019 87.099C84.3519 87.099 83.8752 86.9853 83.4719 86.758C83.0686 86.5233 82.7569 86.1933 82.5369 85.768C82.3169 85.3353 82.2069 84.822 82.2069 84.228C82.2069 83.634 82.3169 83.1243 82.5369 82.699C82.7569 82.2663 83.0686 81.9363 83.4719 81.709C83.8752 81.4743 84.3519 81.357 84.9019 81.357C85.4519 81.357 85.9286 81.4743 86.3319 81.709C86.7426 81.9363 87.0579 82.2663 87.2779 82.699C87.5052 83.1243 87.6189 83.634 87.6189 84.228C87.6189 84.822 87.5052 85.3353 87.2779 85.768C87.0579 86.1933 86.7426 86.5233 86.3319 86.758C85.9286 86.9853 85.4519 87.099 84.9019 87.099ZM84.9019 86.23C85.3859 86.23 85.7709 86.0613 86.0569 85.724C86.3429 85.3867 86.4859 84.888 86.4859 84.228C86.4859 83.568 86.3429 83.073 86.0569 82.743C85.7709 82.4057 85.3859 82.237 84.9019 82.237C84.4252 82.237 84.0439 82.4057 83.7579 82.743C83.4719 83.073 83.3289 83.568 83.3289 84.228C83.3289 84.888 83.4682 85.3867 83.7469 85.724C84.0329 86.0613 84.4179 86.23 84.9019 86.23ZM90.3278 87L88.2268 81.456H89.3818L91.0208 86.076H90.7348L92.4178 81.456H93.2758L94.9478 86.076H94.6728L96.3118 81.456H97.4228L95.3108 87H94.2988L92.5608 82.292H93.0778L91.3618 87H90.3278Z" fill="white"/>
<path d="M51 88.177H97.6318V88.661H51V88.177Z" fill="white"/>
<path d="M79.9369 60.9034C78.4516 60.9034 76.8874 60.5485 75.2706 59.865C73.6933 59.1946 72.1029 58.2745 70.5518 57.1572C69.0139 56.0268 67.5286 54.765 66.1222 53.3848C64.7289 51.9784 63.467 50.4931 62.3498 48.9683C61.2194 47.391 60.3124 45.8137 59.6683 44.2889C58.9848 42.659 58.6431 41.0817 58.6431 39.5964C58.6431 38.5712 58.8271 37.5985 59.182 36.6915C59.55 35.7583 60.1415 34.8907 60.9433 34.1415C61.9554 33.1426 63.1121 32.6431 64.3477 32.6431C64.8603 32.6431 65.3861 32.7614 65.833 32.9717C66.3456 33.2083 66.7794 33.5632 67.0949 34.0364L70.1444 38.3346C70.4204 38.7157 70.6307 39.0838 70.7753 39.4518C70.9462 39.8462 71.0382 40.2405 71.0382 40.6217C71.0382 41.1212 70.8936 41.6075 70.6176 42.0676C70.4204 42.4224 70.1181 42.8036 69.7369 43.1848L68.8431 44.1181C68.8562 44.1575 68.8694 44.1838 68.8825 44.2101C69.0402 44.4861 69.3557 44.9593 69.9603 45.6691C70.6044 46.4052 71.209 47.0755 71.8137 47.6933C72.5892 48.4557 73.2333 49.0603 73.8379 49.5598C74.5871 50.1907 75.0735 50.5062 75.3627 50.6508L75.3364 50.7165L76.2959 49.7701C76.7034 49.3627 77.0977 49.0603 77.4789 48.8632C78.2018 48.4163 79.1219 48.3374 80.042 48.7186C80.3838 48.8632 80.7518 49.0603 81.1462 49.3364L85.5101 52.4384C85.9964 52.767 86.3513 53.1877 86.5616 53.6871C86.7588 54.1866 86.8508 54.6467 86.8508 55.1067C86.8508 55.7377 86.7062 56.3686 86.4302 56.9601C86.1541 57.5516 85.8124 58.0642 85.3786 58.5374C84.6294 59.3655 83.8145 59.957 82.8681 60.3382C81.9611 60.7062 80.9753 60.9034 79.9369 60.9034ZM64.3477 34.6147C63.6248 34.6147 62.9544 34.9302 62.3103 35.5611C61.7057 36.1263 61.2851 36.7441 61.0222 37.4145C60.7462 38.098 60.6147 38.8209 60.6147 39.5964C60.6147 40.8188 60.9039 42.1464 61.4822 43.5134C62.0737 44.9067 62.9018 46.3526 63.9534 47.7985C65.0049 49.2444 66.2011 50.6508 67.5155 51.9784C68.8299 53.2797 70.2495 54.4889 71.7085 55.5536C73.1281 56.592 74.5871 57.4333 76.033 58.0379C78.2807 58.9974 80.3838 59.2209 82.1188 58.498C82.7892 58.2219 83.3807 57.8013 83.9196 57.1967C84.2219 56.8681 84.4585 56.5132 84.6557 56.0926C84.8134 55.7639 84.8923 55.4222 84.8923 55.0804C84.8923 54.8701 84.8529 54.6598 84.7477 54.4232C84.7083 54.3444 84.6294 54.1998 84.3797 54.0289L80.0157 50.9268C79.7529 50.7428 79.5163 50.6114 79.2928 50.5194C79.0036 50.4011 78.8853 50.2828 78.4384 50.5588C78.1755 50.6902 77.9389 50.8874 77.6761 51.1503L76.6771 52.1361C76.1645 52.6356 75.3758 52.7539 74.7712 52.5304L74.4163 52.3727C73.8773 52.0835 73.2464 51.6366 72.5498 51.0451C71.9188 50.5062 71.2353 49.8753 70.4072 49.0603C69.7632 48.4031 69.1191 47.7065 68.4487 46.931C67.831 46.208 67.384 45.5902 67.108 45.0776L66.9503 44.6833C66.8714 44.381 66.8451 44.2101 66.8451 44.0261C66.8451 43.5529 67.016 43.1322 67.3446 42.8036L68.3304 41.7784C68.5933 41.5155 68.7905 41.2657 68.9219 41.0423C69.0271 40.8714 69.0665 40.7268 69.0665 40.5954C69.0665 40.4902 69.0271 40.3325 68.9614 40.1748C68.8694 39.9645 68.7248 39.7279 68.5407 39.4781L65.4913 35.1668C65.3598 34.9828 65.2021 34.8513 65.0049 34.7593C64.7946 34.6673 64.5712 34.6147 64.3477 34.6147ZM75.3364 50.7297L75.1261 51.6235L75.481 50.7034C75.4152 50.6902 75.3627 50.7034 75.3364 50.7297Z" fill="#04FFB4"/>
</svg>
