<svg width="148" height="103" viewBox="0 0 148 103" fill="none" xmlns="http://www.w3.org/2000/svg">
<path d="M0 5C0 2.23858 2.23858 0 5 0H148V103H5C2.23858 103 0 100.761 0 98V5Z" fill="#1D1B4C"/>
<path d="M37.388 87L33.978 79.245H35.21L38.114 86.043H37.718L40.633 79.245H41.81L38.389 87H37.388ZM42.6021 87V81.456H43.7131V87H42.6021ZM42.5141 80.301V79.146H43.8011V80.301H42.5141ZM47.9043 87.099C47.0097 87.099 46.3057 86.846 45.7923 86.34C45.279 85.834 45.0223 85.1337 45.0223 84.239C45.0223 83.6597 45.1323 83.1537 45.3523 82.721C45.5797 82.2883 45.8913 81.9547 46.2873 81.72C46.6907 81.478 47.1563 81.357 47.6843 81.357C48.205 81.357 48.6413 81.467 48.9933 81.687C49.3453 81.907 49.613 82.2187 49.7963 82.622C49.9797 83.018 50.0713 83.4873 50.0713 84.03V84.382H45.8913V83.744H49.3123L49.1253 83.887C49.1253 83.337 49.0007 82.9117 48.7513 82.611C48.5093 82.303 48.1573 82.149 47.6953 82.149C47.182 82.149 46.786 82.3287 46.5073 82.688C46.2287 83.04 46.0893 83.5277 46.0893 84.151V84.261C46.0893 84.9137 46.247 85.405 46.5623 85.735C46.885 86.065 47.3397 86.23 47.9263 86.23C48.249 86.23 48.5497 86.186 48.8283 86.098C49.1143 86.0027 49.3857 85.8487 49.6423 85.636L50.0053 86.395C49.7487 86.6223 49.437 86.7983 49.0703 86.923C48.7037 87.0403 48.315 87.099 47.9043 87.099ZM52.778 87L50.677 81.456H51.832L53.471 86.076H53.185L54.868 81.456H55.726L57.398 86.076H57.123L58.762 81.456H59.873L57.761 87H56.749L55.011 82.292H55.528L53.812 87H52.778ZM63.9386 87V79.245H64.9396L67.9316 85.988H67.6016L70.5936 79.245H71.5836V87H70.5496V80.796H70.9126L68.1186 87H67.4036L64.6096 80.796H64.9836V87H63.9386ZM75.4585 87.099C74.9672 87.099 74.5382 86.9853 74.1715 86.758C73.8048 86.5307 73.5188 86.2007 73.3135 85.768C73.1155 85.3353 73.0165 84.822 73.0165 84.228C73.0165 83.6267 73.1155 83.1133 73.3135 82.688C73.5188 82.2627 73.8048 81.9363 74.1715 81.709C74.5382 81.4743 74.9672 81.357 75.4585 81.357C75.9425 81.357 76.3642 81.478 76.7235 81.72C77.0828 81.962 77.3212 82.292 77.4385 82.71H77.3175L77.4275 81.456H78.5055C78.4835 81.6833 78.4615 81.9107 78.4395 82.138C78.4248 82.358 78.4175 82.5743 78.4175 82.787V87H77.3065V85.768H77.4275C77.3102 86.1787 77.0682 86.505 76.7015 86.747C76.3422 86.9817 75.9278 87.099 75.4585 87.099ZM75.7335 86.23C76.2102 86.23 76.5915 86.0613 76.8775 85.724C77.1708 85.3867 77.3175 84.888 77.3175 84.228C77.3175 83.568 77.1708 83.073 76.8775 82.743C76.5915 82.4057 76.2102 82.237 75.7335 82.237C75.2495 82.237 74.8608 82.4057 74.5675 82.743C74.2815 83.073 74.1385 83.568 74.1385 84.228C74.1385 84.888 74.2815 85.3867 74.5675 85.724C74.8535 86.0613 75.2422 86.23 75.7335 86.23ZM80.0386 89.376V82.787C80.0386 82.5743 80.0276 82.358 80.0056 82.138C79.9909 81.9107 79.9726 81.6833 79.9506 81.456H81.0286L81.1386 82.71H81.0176C81.1349 82.292 81.3696 81.962 81.7216 81.72C82.0809 81.478 82.5063 81.357 82.9976 81.357C83.4889 81.357 83.9179 81.4743 84.2846 81.709C84.6513 81.9363 84.9336 82.2627 85.1316 82.688C85.3369 83.1133 85.4396 83.6267 85.4396 84.228C85.4396 84.822 85.3369 85.3353 85.1316 85.768C84.9336 86.2007 84.6513 86.5307 84.2846 86.758C83.9179 86.9853 83.4889 87.099 82.9976 87.099C82.5136 87.099 82.0919 86.9817 81.7326 86.747C81.3806 86.505 81.1459 86.1787 81.0286 85.768H81.1496V89.376H80.0386ZM82.7226 86.23C83.2066 86.23 83.5916 86.0613 83.8776 85.724C84.1709 85.3867 84.3176 84.888 84.3176 84.228C84.3176 83.568 84.1709 83.073 83.8776 82.743C83.5916 82.4057 83.2066 82.237 82.7226 82.237C82.2386 82.237 81.8499 82.4057 81.5566 82.743C81.2706 83.073 81.1276 83.568 81.1276 84.228C81.1276 84.888 81.2706 85.3867 81.5566 85.724C81.8499 86.0613 82.2386 86.23 82.7226 86.23ZM89.7734 87V79.245H90.9174V82.589H95.2734V79.245H96.4174V87H95.2734V83.546H90.9174V87H89.7734ZM100.702 87.099C99.8075 87.099 99.1035 86.846 98.5902 86.34C98.0769 85.834 97.8202 85.1337 97.8202 84.239C97.8202 83.6597 97.9302 83.1537 98.1502 82.721C98.3775 82.2883 98.6892 81.9547 99.0852 81.72C99.4885 81.478 99.9542 81.357 100.482 81.357C101.003 81.357 101.439 81.467 101.791 81.687C102.143 81.907 102.411 82.2187 102.594 82.622C102.778 83.018 102.869 83.4873 102.869 84.03V84.382H98.6892V83.744H102.11L101.923 83.887C101.923 83.337 101.799 82.9117 101.549 82.611C101.307 82.303 100.955 82.149 100.493 82.149C99.9799 82.149 99.5839 82.3287 99.3052 82.688C99.0265 83.04 98.8872 83.5277 98.8872 84.151V84.261C98.8872 84.9137 99.0449 85.405 99.3602 85.735C99.6829 86.065 100.138 86.23 100.724 86.23C101.047 86.23 101.348 86.186 101.626 86.098C101.912 86.0027 102.184 85.8487 102.44 85.636L102.803 86.395C102.547 86.6223 102.235 86.7983 101.868 86.923C101.502 87.0403 101.113 87.099 100.702 87.099ZM104.122 87V82.831C104.122 82.6037 104.115 82.3763 104.1 82.149C104.093 81.9143 104.078 81.6833 104.056 81.456H105.134L105.255 82.886H105.079C105.152 82.5413 105.277 82.2553 105.453 82.028C105.629 81.8007 105.842 81.632 106.091 81.522C106.348 81.412 106.615 81.357 106.894 81.357C107.011 81.357 107.11 81.3643 107.191 81.379C107.272 81.3863 107.352 81.401 107.433 81.423L107.422 82.413C107.297 82.3617 107.187 82.3323 107.092 82.325C107.004 82.3103 106.894 82.303 106.762 82.303C106.439 82.303 106.164 82.3763 105.937 82.523C105.71 82.6623 105.537 82.853 105.42 83.095C105.303 83.337 105.244 83.5973 105.244 83.876V87H104.122ZM110.778 87.099C109.884 87.099 109.18 86.846 108.666 86.34C108.153 85.834 107.896 85.1337 107.896 84.239C107.896 83.6597 108.006 83.1537 108.226 82.721C108.454 82.2883 108.765 81.9547 109.161 81.72C109.565 81.478 110.03 81.357 110.558 81.357C111.079 81.357 111.515 81.467 111.867 81.687C112.219 81.907 112.487 82.2187 112.67 82.622C112.854 83.018 112.945 83.4873 112.945 84.03V84.382H108.765V83.744H112.186L111.999 83.887C111.999 83.337 111.875 82.9117 111.625 82.611C111.383 82.303 111.031 82.149 110.569 82.149C110.056 82.149 109.66 82.3287 109.381 82.688C109.103 83.04 108.963 83.5277 108.963 84.151V84.261C108.963 84.9137 109.121 85.405 109.436 85.735C109.759 86.065 110.214 86.23 110.8 86.23C111.123 86.23 111.424 86.186 111.702 86.098C111.988 86.0027 112.26 85.8487 112.516 85.636L112.879 86.395C112.623 86.6223 112.311 86.7983 111.944 86.923C111.578 87.0403 111.189 87.099 110.778 87.099Z" fill="white"/>
<path d="M34 88.177H113.407V88.661H34V88.177Z" fill="white"/>
<path d="M72.0001 49.7125C69.3376 49.7125 67.1626 47.55 67.1626 44.875C67.1626 42.2 69.3376 40.05 72.0001 40.05C74.6626 40.05 76.8376 42.2125 76.8376 44.8875C76.8376 47.5625 74.6626 49.7125 72.0001 49.7125ZM72.0001 41.925C70.3751 41.925 69.0376 43.25 69.0376 44.8875C69.0376 46.525 70.3626 47.85 72.0001 47.85C73.6376 47.85 74.9626 46.525 74.9626 44.8875C74.9626 43.25 73.6251 41.925 72.0001 41.925Z" fill="#04FFB4"/>
<path d="M72.0001 60.45C70.1501 60.45 68.2876 59.75 66.8376 58.3625C63.1501 54.8125 59.0751 49.15 60.6126 42.4125C62.0001 36.3 67.3376 33.5625 72.0001 33.5625C72.0001 33.5625 72.0001 33.5625 72.0126 33.5625C76.6751 33.5625 82.0126 36.3 83.4001 42.425C84.9251 49.1625 80.8501 54.8125 77.1626 58.3625C75.7126 59.75 73.8501 60.45 72.0001 60.45ZM72.0001 35.4375C68.3626 35.4375 63.6876 37.375 62.4501 42.825C61.1001 48.7125 64.8001 53.7875 68.1501 57C70.3126 59.0875 73.7001 59.0875 75.8626 57C79.2001 53.7875 82.9001 48.7125 81.5751 42.825C80.3251 37.375 75.6376 35.4375 72.0001 35.4375Z" fill="#04FFB4"/>
</svg>
