<svg width="148" height="103" viewBox="0 0 148 103" fill="none" xmlns="http://www.w3.org/2000/svg">
<path d="M0 5C0 2.23858 2.23858 0 5 0H148V103H5C2.23858 103 0 100.761 0 98V5Z" fill="#1D1B4C"/>
<path d="M50.924 87V79.245H51.925L54.917 85.988H54.587L57.579 79.245H58.569V87H57.535V80.796H57.898L55.104 87H54.389L51.595 80.796H51.969V87H50.924ZM62.4438 87.099C61.9525 87.099 61.5235 86.9853 61.1568 86.758C60.7902 86.5307 60.5042 86.2007 60.2988 85.768C60.1008 85.3353 60.0018 84.822 60.0018 84.228C60.0018 83.6267 60.1008 83.1133 60.2988 82.688C60.5042 82.2627 60.7902 81.9363 61.1568 81.709C61.5235 81.4743 61.9525 81.357 62.4438 81.357C62.9278 81.357 63.3495 81.478 63.7088 81.72C64.0682 81.962 64.3065 82.292 64.4238 82.71H64.3028L64.4128 81.456H65.4908C65.4688 81.6833 65.4468 81.9107 65.4248 82.138C65.4102 82.358 65.4028 82.5743 65.4028 82.787V87H64.2918V85.768H64.4128C64.2955 86.1787 64.0535 86.505 63.6868 86.747C63.3275 86.9817 62.9132 87.099 62.4438 87.099ZM62.7188 86.23C63.1955 86.23 63.5768 86.0613 63.8628 85.724C64.1562 85.3867 64.3028 84.888 64.3028 84.228C64.3028 83.568 64.1562 83.073 63.8628 82.743C63.5768 82.4057 63.1955 82.237 62.7188 82.237C62.2348 82.237 61.8462 82.4057 61.5528 82.743C61.2668 83.073 61.1238 83.568 61.1238 84.228C61.1238 84.888 61.2668 85.3867 61.5528 85.724C61.8388 86.0613 62.2275 86.23 62.7188 86.23ZM67.024 87V81.456H68.135V87H67.024ZM66.936 80.301V79.146H68.223V80.301H66.936ZM69.7632 87V78.904H70.8742V87H69.7632ZM75.5341 87V79.245H76.4141L81.1771 85.493H80.9021V79.245H81.9691V87H81.1001L76.3481 80.752H76.6011V87H75.5341ZM86.0611 87.099C85.5111 87.099 85.0344 86.9853 84.6311 86.758C84.2278 86.5233 83.9161 86.1933 83.6961 85.768C83.4761 85.3353 83.3661 84.822 83.3661 84.228C83.3661 83.634 83.4761 83.1243 83.6961 82.699C83.9161 82.2663 84.2278 81.9363 84.6311 81.709C85.0344 81.4743 85.5111 81.357 86.0611 81.357C86.6111 81.357 87.0878 81.4743 87.4911 81.709C87.9018 81.9363 88.2171 82.2663 88.4371 82.699C88.6644 83.1243 88.7781 83.634 88.7781 84.228C88.7781 84.822 88.6644 85.3353 88.4371 85.768C88.2171 86.1933 87.9018 86.5233 87.4911 86.758C87.0878 86.9853 86.6111 87.099 86.0611 87.099ZM86.0611 86.23C86.5451 86.23 86.9301 86.0613 87.2161 85.724C87.5021 85.3867 87.6451 84.888 87.6451 84.228C87.6451 83.568 87.5021 83.073 87.2161 82.743C86.9301 82.4057 86.5451 82.237 86.0611 82.237C85.5844 82.237 85.2031 82.4057 84.9171 82.743C84.6311 83.073 84.4881 83.568 84.4881 84.228C84.4881 84.888 84.6274 85.3867 84.9061 85.724C85.1921 86.0613 85.5771 86.23 86.0611 86.23ZM91.487 87L89.386 81.456H90.541L92.18 86.076H91.894L93.577 81.456H94.435L96.107 86.076H95.832L97.471 81.456H98.582L96.47 87H95.458L93.72 82.292H94.237L92.521 87H91.487Z" fill="white"/>
<path d="M50 88.177H98.791V88.661H50V88.177Z" fill="white"/>
<path d="M75 60.5125C74.1375 60.5125 73.325 60.075 72.75 59.3125L70.875 56.8125C70.8375 56.7625 70.6875 56.7 70.625 56.6875H70C64.7875 56.6875 61.5625 55.275 61.5625 48.25V42C61.5625 36.475 64.475 33.5625 70 33.5625H80C85.525 33.5625 88.4375 36.475 88.4375 42V48.25C88.4375 53.775 85.525 56.6875 80 56.6875H79.375C79.275 56.6875 79.1875 56.7375 79.125 56.8125L77.25 59.3125C76.675 60.075 75.8625 60.5125 75 60.5125ZM70 35.4375C65.525 35.4375 63.4375 37.525 63.4375 42V48.25C63.4375 53.9 65.375 54.8125 70 54.8125H70.625C71.2625 54.8125 71.9875 55.175 72.375 55.6875L74.25 58.1875C74.6875 58.7625 75.3125 58.7625 75.75 58.1875L77.625 55.6875C78.0375 55.1375 78.6875 54.8125 79.375 54.8125H80C84.475 54.8125 86.5625 52.725 86.5625 48.25V42C86.5625 37.525 84.475 35.4375 80 35.4375H70Z" fill="#04FFB4"/>
<path d="M81.25 42.9375H68.75C68.2375 42.9375 67.8125 42.5125 67.8125 42C67.8125 41.4875 68.2375 41.0625 68.75 41.0625H81.25C81.7625 41.0625 82.1875 41.4875 82.1875 42C82.1875 42.5125 81.7625 42.9375 81.25 42.9375Z" fill="#04FFB4"/>
<path d="M76.25 49.1875H68.75C68.2375 49.1875 67.8125 48.7625 67.8125 48.25C67.8125 47.7375 68.2375 47.3125 68.75 47.3125H76.25C76.7625 47.3125 77.1875 47.7375 77.1875 48.25C77.1875 48.7625 76.7625 49.1875 76.25 49.1875Z" fill="#04FFB4"/>
</svg>
