<svg width="90" height="90" viewBox="0 0 90 90" fill="none" xmlns="http://www.w3.org/2000/svg">
<circle cx="45" cy="45" r="44.5" fill="#04FFB4" fill-opacity="0.17" stroke="#04FFB4"/>
<path d="M45 47.7125C42.3375 47.7125 40.1625 45.55 40.1625 42.875C40.1625 40.2 42.3375 38.05 45 38.05C47.6625 38.05 49.8375 40.2125 49.8375 42.8875C49.8375 45.5625 47.6625 47.7125 45 47.7125ZM45 39.925C43.375 39.925 42.0375 41.25 42.0375 42.8875C42.0375 44.525 43.3625 45.85 45 45.85C46.6375 45.85 47.9625 44.525 47.9625 42.8875C47.9625 41.25 46.625 39.925 45 39.925Z" fill="#04FFB4"/>
<path d="M45 58.45C43.15 58.45 41.2875 57.75 39.8375 56.3625C36.15 52.8125 32.075 47.15 33.6125 40.4125C35 34.3 40.3375 31.5625 45 31.5625C45 31.5625 45 31.5625 45.0125 31.5625C49.675 31.5625 55.0125 34.3 56.4 40.425C57.925 47.1625 53.85 52.8125 50.1625 56.3625C48.7125 57.75 46.85 58.45 45 58.45ZM45 33.4375C41.3625 33.4375 36.6875 35.375 35.45 40.825C34.1 46.7125 37.8 51.7875 41.15 55C43.3125 57.0875 46.7 57.0875 48.8625 55C52.2 51.7875 55.9 46.7125 54.575 40.825C53.325 35.375 48.6375 33.4375 45 33.4375Z" fill="#04FFB4"/>
</svg>
