<svg width="90" height="90" viewBox="0 0 90 90" fill="none" xmlns="http://www.w3.org/2000/svg">
<circle cx="45" cy="45" r="44.5" fill="#04FFB4" fill-opacity="0.17" stroke="#04FFB4"/>
<path d="M45 58.5125C44.1375 58.5125 43.325 58.075 42.75 57.3125L40.875 54.8125C40.8375 54.7625 40.6875 54.7 40.625 54.6875H40C34.7875 54.6875 31.5625 53.275 31.5625 46.25V40C31.5625 34.475 34.475 31.5625 40 31.5625H50C55.525 31.5625 58.4375 34.475 58.4375 40V46.25C58.4375 51.775 55.525 54.6875 50 54.6875H49.375C49.275 54.6875 49.1875 54.7375 49.125 54.8125L47.25 57.3125C46.675 58.075 45.8625 58.5125 45 58.5125ZM40 33.4375C35.525 33.4375 33.4375 35.525 33.4375 40V46.25C33.4375 51.9 35.375 52.8125 40 52.8125H40.625C41.2625 52.8125 41.9875 53.175 42.375 53.6875L44.25 56.1875C44.6875 56.7625 45.3125 56.7625 45.75 56.1875L47.625 53.6875C48.0375 53.1375 48.6875 52.8125 49.375 52.8125H50C54.475 52.8125 56.5625 50.725 56.5625 46.25V40C56.5625 35.525 54.475 33.4375 50 33.4375H40Z" fill="#04FFB4"/>
<path d="M51.25 40.9375H38.75C38.2375 40.9375 37.8125 40.5125 37.8125 40C37.8125 39.4875 38.2375 39.0625 38.75 39.0625H51.25C51.7625 39.0625 52.1875 39.4875 52.1875 40C52.1875 40.5125 51.7625 40.9375 51.25 40.9375Z" fill="#04FFB4"/>
<path d="M46.25 47.1875H38.75C38.2375 47.1875 37.8125 46.7625 37.8125 46.25C37.8125 45.7375 38.2375 45.3125 38.75 45.3125H46.25C46.7625 45.3125 47.1875 45.7375 47.1875 46.25C47.1875 46.7625 46.7625 47.1875 46.25 47.1875Z" fill="#04FFB4"/>
</svg>
