<svg width="90" height="90" viewBox="0 0 90 90" fill="none" xmlns="http://www.w3.org/2000/svg">
<circle cx="45" cy="45" r="44.5" fill="#04FFB4" fill-opacity="0.17" stroke="#04FFB4"/>
<path d="M51.6998 59.594C50.2145 59.594 48.6503 59.2392 47.0336 58.5556C45.4563 57.8853 43.8658 56.9652 42.3148 55.8479C40.7769 54.7175 39.2916 53.4556 37.8851 52.0755C36.4918 50.6691 35.23 49.1837 34.1127 47.659C32.9823 46.0817 32.0753 44.5044 31.4313 42.9796C30.7478 41.3497 30.406 39.7724 30.406 38.2871C30.406 37.2618 30.59 36.2892 30.9449 35.3822C31.313 34.4489 31.9045 33.5814 32.7063 32.8322C33.7184 31.8332 34.8751 31.3337 36.1106 31.3337C36.6233 31.3337 37.149 31.452 37.596 31.6623C38.1086 31.8989 38.5423 32.2538 38.8578 32.727L41.9073 37.0252C42.1833 37.4064 42.3936 37.7745 42.5382 38.1425C42.7091 38.5368 42.8011 38.9312 42.8011 39.3123C42.8011 39.8118 42.6565 40.2982 42.3805 40.7582C42.1833 41.1131 41.881 41.4943 41.4998 41.8755L40.606 42.8087C40.6192 42.8482 40.6323 42.8745 40.6454 42.9008C40.8032 43.1768 41.1186 43.65 41.7233 44.3598C42.3673 45.0959 42.972 45.7662 43.5766 46.384C44.3521 47.1464 44.9962 47.751 45.6009 48.2505C46.3501 48.8814 46.8364 49.1969 47.1256 49.3415L47.0993 49.4072L48.0588 48.4608C48.4663 48.0533 48.8606 47.751 49.2418 47.5538C49.9648 47.1069 50.8849 47.0281 51.805 47.4093C52.1467 47.5538 52.5148 47.751 52.9091 48.027L57.273 51.1291C57.7594 51.4577 58.1143 51.8783 58.3246 52.3778C58.5217 52.8773 58.6137 53.3373 58.6137 53.7974C58.6137 54.4283 58.4691 55.0593 58.1931 55.6508C57.9171 56.2422 57.5753 56.7549 57.1416 57.2281C56.3923 58.0562 55.5774 58.6477 54.631 59.0288C53.724 59.3969 52.7382 59.594 51.6998 59.594ZM36.1106 33.3054C35.3877 33.3054 34.7173 33.6209 34.0733 34.2518C33.4686 34.817 33.048 35.4348 32.7851 36.1051C32.5091 36.7886 32.3777 37.5116 32.3777 38.2871C32.3777 39.5095 32.6668 40.8371 33.2452 42.2041C33.8367 43.5974 34.6648 45.0433 35.7163 46.4892C36.7679 47.935 37.964 49.3415 39.2784 50.6691C40.5929 51.9703 42.0124 53.1796 43.4715 54.2443C44.8911 55.2827 46.3501 56.1239 47.796 56.7286C50.0436 57.6881 52.1467 57.9116 53.8818 57.1886C54.5521 56.9126 55.1436 56.492 55.6826 55.8873C55.9849 55.5587 56.2215 55.2038 56.4186 54.7832C56.5764 54.4546 56.6552 54.1129 56.6552 53.7711C56.6552 53.5608 56.6158 53.3505 56.5106 53.1139C56.4712 53.035 56.3923 52.8904 56.1426 52.7196L51.7787 49.6175C51.5158 49.4335 51.2792 49.302 51.0557 49.21C50.7666 49.0917 50.6483 48.9734 50.2014 49.2495C49.9385 49.3809 49.7019 49.5781 49.439 49.841L48.44 50.8268C47.9274 51.3263 47.1387 51.4446 46.5341 51.2211L46.1792 51.0634C45.6403 50.7742 45.0094 50.3273 44.3127 49.7358C43.6818 49.1969 42.9983 48.566 42.1702 47.751C41.5261 47.0938 40.882 46.3971 40.2117 45.6216C39.5939 44.8987 39.147 44.2809 38.871 43.7683L38.7132 43.3739C38.6344 43.0716 38.6081 42.9008 38.6081 42.7167C38.6081 42.2435 38.7789 41.8229 39.1076 41.4943L40.0934 40.469C40.3563 40.2062 40.5534 39.9564 40.6849 39.733C40.79 39.5621 40.8295 39.4175 40.8295 39.2861C40.8295 39.1809 40.79 39.0232 40.7243 38.8654C40.6323 38.6551 40.4877 38.4185 40.3037 38.1688L37.2542 33.8575C37.1228 33.6734 36.965 33.542 36.7679 33.45C36.5576 33.358 36.3341 33.3054 36.1106 33.3054ZM47.0993 49.4203L46.889 50.3142L47.2439 49.394C47.1782 49.3809 47.1256 49.3941 47.0993 49.4203Z" fill="#04FFB4"/>
</svg>
