<svg width="22" height="22" viewBox="0 0 22 22" fill="none" xmlns="http://www.w3.org/2000/svg">
<path d="M10.8769 2.93994H7.43074C5.05167 2.93994 3.12305 4.86856 3.12305 7.24763V14.1399C3.12305 16.519 5.05167 18.4476 7.43074 18.4476H14.323C16.7021 18.4476 18.6307 16.519 18.6307 14.1399V7.24763C18.6307 4.86856 16.7021 2.93994 14.323 2.93994H10.8769Z" stroke="white" stroke-width="1.72308" stroke-linecap="round" stroke-linejoin="round"/>
<path d="M10.8769 7.2478C12.7802 7.2478 14.3231 8.7907 14.3231 10.694C14.3231 12.5972 12.7802 14.1401 10.8769 14.1401C8.97368 14.1401 7.43079 12.5972 7.43079 10.694C7.43079 8.7907 8.97368 7.2478 10.8769 7.2478Z" stroke="white" stroke-width="1.72308" stroke-linecap="round" stroke-linejoin="round"/>
<path d="M15.1846 7.67861C15.8984 7.67861 16.4769 7.10002 16.4769 6.3863C16.4769 5.67258 15.8984 5.09399 15.1846 5.09399C14.4709 5.09399 13.8923 5.67258 13.8923 6.3863C13.8923 7.10002 14.4709 7.67861 15.1846 7.67861Z" fill="white"/>
</svg>
