<svg width="161" height="29" viewBox="0 0 161 29" fill="none" xmlns="http://www.w3.org/2000/svg">
<mask id="mask0_1_235" style="mask-type:luminance" maskUnits="userSpaceOnUse" x="0" y="0" width="161" height="29">
<path d="M0 0.793491H160.14V29H0V0.793491Z" fill="white"/>
</mask>
<g mask="url(#mask0_1_235)">
<path d="M19.3953 12.1826C19.2916 12.1826 19.2043 12.1852 19.1552 12.1907C19.0978 12.2944 19.0132 12.4336 18.8876 12.6274C20.8418 12.6274 22.6159 12.7885 24.5782 13.1405L24.0242 13.6755C22.2529 13.3616 20.7818 13.2361 18.9068 13.2361C18.6339 13.2361 18.5765 13.2361 18.5111 13.2388C18.4456 13.337 18.2981 13.5281 18.1508 13.7055C18.3172 13.6946 18.6393 13.6891 19.0842 13.6891C20.6262 13.6891 22.0673 13.8037 23.6312 14.0549L23.0772 14.5925C21.8871 14.407 20.4324 14.3005 19.1278 14.3005C18.6638 14.3005 18.1371 14.3169 17.6649 14.3442C17.5585 14.467 17.2801 14.7672 17.1955 14.86C17.8205 14.7945 18.5084 14.7645 19.3271 14.7645C20.4925 14.7645 21.6061 14.8409 22.6596 14.9965L22.1055 15.5287C21.3549 15.4359 20.4433 15.3813 19.6382 15.3813C17.5613 15.3813 15.9236 15.8316 14.2315 16.866C15.8445 18.5964 18.4865 19.6908 21.0465 19.6908H21.2867L20.3915 20.5562C16.6988 19.8629 12.8122 18.2389 9.52891 16.0144C6.37109 13.8829 5.26574 13.2525 2.80119 12.1635L2.78482 11.5302L4.45242 12.2454L5.02012 11.795L10.465 14.2896L10.1102 14.5734L7.31544 13.3589L7.03978 13.5745L8.4918 14.3851C9.71733 15.0675 10.6506 15.3731 11.5131 15.3731C13.3991 15.3731 15.0912 14.0357 16.1829 11.6859C17.0045 11.5794 17.8806 11.5302 18.9341 11.5302C21.0957 11.5302 23.1945 11.7377 25.5717 12.1826L24.9931 12.742C23.5139 12.4336 21.0001 12.1826 19.3953 12.1826M14.1032 27.7259C7.01975 27.7259 1.2738 21.9799 1.2738 14.8965C1.2738 7.81307 7.01975 2.06706 14.1032 2.06706C21.1866 2.06706 26.9326 7.81307 26.9326 14.8965C26.9326 21.9799 21.1866 27.7259 14.1032 27.7259ZM14.1032 1.24822C6.55573 1.24822 0.454834 7.34899 0.454834 14.8965C0.454834 22.444 6.55573 28.5449 14.1032 28.5449C21.6507 28.5449 27.7515 22.444 27.7515 14.8965C27.7515 7.34899 21.6507 1.24822 14.1032 1.24822ZM50.1607 20.3299H57.9858V23.9954H45.9494V5.79758H50.1607V20.3299ZM67.4486 10.8931H71.3741V23.9954H67.6827V22.4876C67.1366 23.5015 66.0189 24.3853 63.965 24.3853C60.6116 24.3853 58.8698 22.8775 58.8698 18.5621V10.893H62.7953V18.38C62.7953 20.1219 63.5493 20.9017 65.135 20.9017C66.5648 20.9017 67.4487 20.1219 67.4487 18.38L67.4486 10.8931ZM74.3898 10.3992C74.3898 7.22765 76.3917 5.53771 79.5372 5.53771C80.5512 5.53771 81.2011 5.69371 81.2011 5.69371V8.86527C81.2011 8.86527 80.6551 8.81346 80.1871 8.81346C78.9652 8.81346 78.3152 9.22946 78.3152 10.3732V10.8931H81.2011V14.0908H78.3152V23.9954H74.3898V14.0906H72.4141V10.893H74.3898V10.3991M88.1159 10.893H91.1055V14.0906H88.1159V19.186C88.1159 20.5898 88.8439 20.9537 89.9877 20.9537C90.4555 20.9537 91.1055 20.8758 91.1055 20.8758V24.0214C91.1055 24.0214 90.1958 24.2293 89.2338 24.2293C86.0883 24.2293 84.1905 22.7996 84.1905 19.6281V14.0906H82.2147V10.893H84.1905V7.07152H88.1159V10.893ZM99.7967 10.503C103.124 10.503 104.866 12.0108 104.866 16.3263V23.9954H100.94V16.5083C100.94 14.7666 100.187 13.9868 98.5489 13.9868C97.067 13.9868 96.1832 14.7666 96.1832 16.5083V23.9954H92.2577V5.82365H96.2091V12.1668C96.8851 11.2049 97.9509 10.5031 99.7967 10.5031M114.875 18.9C114.875 20.3299 113.523 21.3958 111.443 21.3958C110.429 21.3958 109.831 20.9279 109.831 20.0439C109.831 19.368 110.247 18.7961 111.573 18.6143L113.835 18.3021C114.225 18.2501 114.641 18.1722 114.875 18.0942V18.9ZM112.691 10.5032C108.818 10.5032 106.946 11.9851 106.79 14.7667H110.611C110.663 14.0387 111.079 13.4928 112.691 13.4928C114.121 13.4928 114.797 13.9608 114.797 14.6626C114.797 15.2867 114.407 15.5206 113.445 15.6245L110.949 15.8845C107.57 16.2483 106.036 17.6523 106.036 20.2001C106.036 22.5657 107.492 24.3854 110.585 24.3854C112.691 24.3854 113.939 23.7095 115.031 22.3576V23.9954H118.618V15.3906C118.618 11.777 116.513 10.5032 112.691 10.5032ZM127.695 10.5032C131.101 10.5032 132.843 12.0109 132.843 16.3264V23.9954H128.917V16.5083C128.917 14.7666 128.163 13.9868 126.526 13.9868C125.044 13.9868 124.16 14.7666 124.16 16.5083V23.9954H120.234V10.8931H123.926V12.401C124.472 11.387 125.59 10.5031 127.695 10.5031M141.124 15.7804C144.451 16.2224 146.115 17.2623 146.115 19.9919C146.115 22.7476 144.165 24.3854 140.032 24.3854C135.534 24.3854 133.949 22.5917 133.871 19.9658H137.744C137.848 20.9279 138.524 21.3958 140.032 21.3958C141.566 21.3958 142.19 21.0318 142.19 20.3039C142.19 19.6281 141.67 19.3161 140.318 19.1341L138.94 18.952C136.054 18.5621 134.391 17.4443 134.391 14.8446C134.391 12.3489 136.236 10.5031 140.11 10.5031C143.697 10.5031 145.621 11.9329 145.803 14.7666H141.982C141.852 14.0129 141.436 13.5448 140.11 13.5448C138.81 13.5448 138.316 13.9868 138.316 14.5588C138.316 15.1305 138.628 15.4425 139.746 15.5986L141.124 15.7804ZM155.942 18.9003C155.942 20.3299 154.59 21.3958 152.51 21.3958C151.496 21.3958 150.898 20.9279 150.898 20.0439C150.898 19.368 151.314 18.7961 152.64 18.6143L154.902 18.3021C155.292 18.2503 155.708 18.1722 155.942 18.0942L155.942 18.9003ZM153.758 10.5032C149.885 10.5032 148.013 11.985 147.857 14.7666H151.678C151.73 14.0386 152.146 13.493 153.758 13.493C155.188 13.493 155.864 13.9608 155.864 14.6627C155.864 15.2867 155.474 15.5205 154.512 15.6244L152.016 15.8844C148.637 16.2484 147.103 17.6523 147.103 20.2C147.103 22.5657 148.559 24.3853 151.652 24.3853C153.758 24.3853 155.006 23.7094 156.098 22.3575V23.9954H159.685V15.3906C159.685 11.7772 157.579 10.5032 153.758 10.5032Z" fill="white"/>
</g>
</svg>
