<svg width="236" height="44" viewBox="0 0 236 44" fill="none" xmlns="http://www.w3.org/2000/svg">
<path d="M9.84707 38.6003C9.81711 38.4486 9.78153 38.2969 9.74595 38.1434C9.65045 37.7352 9.55308 37.3139 9.53997 36.8851C9.53061 36.5499 9.65607 36.2315 9.89201 35.9862C10.1354 35.7353 10.4762 35.5911 10.8245 35.5911H10.8676C11.1803 35.6024 11.2627 35.6192 11.3301 35.6548C11.4031 35.6885 11.4818 35.7241 11.5529 35.7578C11.8376 35.8907 11.9593 35.9451 12.1166 35.9451C12.2495 35.9451 12.4255 35.9057 12.7251 35.8121C13.6932 35.4882 14.4348 34.4283 15.1519 33.4059C15.4834 32.9359 15.7942 32.4902 16.1238 32.127C16.7118 31.215 18.97 30.6701 20.189 30.3762L20.219 30.3687C20.395 30.0091 20.5935 29.6084 20.8051 29.1833H1.79332C1.62104 29.5522 1.45064 29.8986 1.28211 30.2263C-0.526751 34.4789 -0.421889 37.7389 1.59857 40.0066C3.2258 41.836 5.89041 42.9914 9.58866 43.4801C8.83403 41.6918 9.12427 40.2631 9.84707 38.5966V38.6003Z" fill="#04FFB4"/>
<path d="M10.4387 21.7925C11.1765 22.6726 12.3375 23.3767 13.9198 23.9085C15.5021 24.4403 17.4382 24.7062 19.7284 24.7062H23.1027C23.5352 23.886 23.9359 23.1408 24.258 22.5659C24.3104 22.4741 24.3741 22.3899 24.4378 22.3112C23.5521 19.4949 25.4115 16.5232 27.7166 15.5046C27.99 13.5216 28.6397 10.3233 29.1153 8.38335L25.9152 6.78796C25.5538 7.26171 25.1437 7.79538 24.4958 7.96017C23.1663 8.49758 21.3874 9.34771 20.2227 9.94504C20.2264 10.0312 20.2339 10.1211 20.2414 10.2128C20.2751 10.6398 20.3126 11.1229 20.1459 11.5198L20.1384 11.5386L20.1272 11.5573C19.7433 12.1528 19.0093 12.7932 18.2697 12.8418C18.264 12.8475 18.2603 12.8531 18.2547 12.8587C18.1311 12.9954 17.9626 13.1808 17.7397 13.1808C17.6498 13.1808 17.5656 13.1508 17.4944 13.0928L17.457 13.0628L17.4326 13.0197C17.3802 12.9261 17.3746 12.8325 17.3783 12.752C17.3034 12.7295 17.2341 12.6883 17.1798 12.6302C17.0712 12.516 17.0319 12.3643 17.0188 12.2445C16.6012 11.9393 16.223 11.488 15.9683 10.9899L15.9196 10.8944L15.9552 10.7933C16.0676 10.4712 16.2454 10.1754 16.4177 9.88887C16.5245 9.71098 16.6256 9.54245 16.708 9.37205L16.7566 9.27094L16.9589 9.21288C17.4663 9.06869 18.3146 8.82901 18.7752 8.7279C19.1909 8.62116 20.1122 7.74856 20.7845 7.1119C21.2357 6.68497 21.6252 6.31421 21.8893 6.13257C22.6233 5.51277 24.0539 4.38925 24.7804 3.82374C24.8722 3.73573 25.0894 3.56158 25.316 3.56158C25.3385 3.56158 25.3591 3.56159 25.3815 3.56721C25.3871 3.56721 28.7764 4.16829 28.8157 4.17578C28.8719 4.18514 28.9375 4.19825 29.0086 4.21136C29.2127 4.25068 29.4674 4.29936 29.6846 4.29936C29.8756 4.29936 29.9673 4.26191 30.0104 4.23195L30.0385 4.21136L30.0703 4.20012C30.677 3.98291 31.2725 3.8743 31.8436 3.8743C32.6507 3.8743 33.351 4.09338 33.9278 4.52407C34.1562 4.46976 34.3903 4.44355 34.6243 4.44355C35.2123 4.44355 35.8228 4.61582 36.3957 4.94164C36.6298 4.65888 36.7721 3.78255 36.8789 3.12342C37.0156 2.28827 37.156 1.42316 37.4874 0.960647L37.5062 0.934429L37.5305 0.913834C37.8863 0.614229 38.287 0.382031 38.7083 0.219121C34.9839 0.207886 30.5179 0.219126 26.5069 0.235979C19.8651 0.265939 13.4067 4.55403 10.4968 10.8701C10.1185 11.6921 9.78334 12.4411 9.52119 13.0591C8.63923 15.3136 8.82461 17.4595 9.02685 18.6654C9.22908 19.8713 9.70095 20.9143 10.4387 21.7925Z" fill="#04FFB4"/>
<path d="M48.9941 20.3582C48.3051 19.4182 47.2059 18.6411 45.6947 18.0288C45.0131 17.7516 44.251 17.5419 43.4196 17.3884C42.9234 17.9071 42.3972 18.392 41.8317 18.8246L41.695 18.9295L41.549 18.8396C39.4854 17.5831 38.0193 16.2592 37.0755 14.8005C36.0007 15.6638 34.967 16.5326 34.2143 17.2105C33.602 17.7966 32.8567 18.804 32.7668 20.2758C33.6263 20.9668 35.0363 22.1483 36.1786 23.1052C36.5886 23.4479 36.9594 23.7587 37.2515 24.0022C38.1054 24.6482 40.9011 26.9233 40.6445 28.779C40.5453 29.4905 40.0229 30.0354 39.0903 30.4006C38.244 30.7376 37.3807 31.1365 36.4651 31.5578C35.1711 32.1552 33.8323 32.7731 32.5496 33.1982L32.014 33.391C30.365 33.984 29.4119 35.2317 29.1547 37.1342L29.1322 37.3027C29.1453 37.5462 29.2539 37.9057 29.3682 38.2858C29.621 39.1228 29.9075 40.0722 29.4225 40.5947L29.3944 40.6246L29.3588 40.6433C29.2802 40.6864 29.194 40.7089 29.1079 40.7089C28.8364 40.7089 28.6323 40.4973 28.4675 40.3269C28.4057 40.2632 28.342 40.1977 28.2971 40.1658C27.2222 39.2614 26.5575 38.0031 26.3496 36.505C26.2504 36.2635 26.0351 35.9751 25.8085 35.6699C25.2523 34.9209 24.4883 33.8966 25.419 33.1101L25.4415 33.0933C25.7242 32.906 26.0444 32.818 26.4508 32.818C26.6418 32.818 26.8309 32.8367 27.0163 32.8555C27.196 32.8723 27.3664 32.8892 27.5331 32.8892C27.6904 32.8892 27.8252 32.8742 27.945 32.8424C29.1996 32.3143 30.1865 31.3462 31.1396 30.41C32.0178 29.5467 32.9185 28.6648 34.0457 28.0899C33.1151 27.8259 31.78 27.2042 30.6003 26.6555C30.1752 26.457 29.8251 26.6349 29.4824 26.4833C28.93 27.1948 28.3046 27.5899 27.7054 28.3914C26.5126 29.9849 25.2804 31.6308 24.1026 32.9884L24.0689 33.0278L24.0221 33.0502C23.6045 33.2525 22.8742 33.4172 22.1702 33.5764C21.7076 33.6813 21.2695 33.7805 20.9661 33.8797L20.0879 34.391C18.1966 35.4939 15.8447 36.8627 14.1145 37.9825C13.7887 38.4356 13.4142 38.8644 13.0491 39.2783C12.2345 40.207 11.4649 41.0834 11.1803 42.2425L11.1335 42.4316C11.0361 42.823 10.9237 43.2761 10.641 43.6057C11.2177 43.66 11.8151 43.6993 12.4367 43.7236C14.107 43.763 17.1911 43.7854 21.6889 43.7854C26.1867 43.7854 29.194 43.7648 30.7126 43.7236C32.6863 43.6413 34.57 43.3154 36.3658 42.7424C38.1616 42.1694 39.7195 41.4541 41.0434 40.5965C42.3654 39.7389 43.5863 38.7371 44.7042 37.5911C45.8202 36.447 46.7452 35.2916 47.4774 34.1269C48.2096 32.9622 48.8256 31.7451 49.3256 30.4774C49.7619 29.3744 50.0783 28.2603 50.2731 27.1349C50.4678 26.0114 50.4753 24.8354 50.2956 23.6089C50.1158 22.3824 49.6814 21.3001 48.9923 20.3582H48.9941Z" fill="#04FFB4"/>
<path d="M55.7671 5.61008C55.3458 4.64947 54.769 3.79186 54.035 3.03535C53.301 2.27885 52.2093 1.6553 50.7655 1.1647C49.32 0.674095 47.6216 0.389467 45.6704 0.307076C44.7454 0.27337 43.3129 0.250901 41.5714 0.237793C42.3654 0.563613 43.0301 1.16096 43.4589 1.96615L43.4739 1.9961L43.4814 2.02981C43.6312 2.6983 43.7379 3.65891 43.3953 4.46222C43.3709 4.60079 43.3953 4.82175 43.4196 5.03521C43.4571 5.37227 43.4964 5.72057 43.3784 5.98085L43.3559 6.0314L43.3129 6.06698C43.1874 6.17371 43.0488 6.19244 42.9459 6.20742C42.9196 6.21116 42.8803 6.21679 42.8597 6.2224C42.796 6.55759 42.6125 6.80101 42.4515 7.01635C42.3822 7.10811 42.3167 7.19425 42.2605 7.286C42.18 8.1174 41.7868 8.29342 41.4647 8.29342C41.0827 8.29342 40.6632 8.03688 40.2588 7.78784C40.2101 7.75788 40.1633 7.72979 40.1165 7.70171C39.8562 7.79533 39.5453 8.00318 39.3113 8.17545C40.0903 8.90012 40.2569 9.93751 40.2494 10.9768C40.3112 11.2913 40.3674 11.6265 40.4179 11.9673C41.0715 12.6826 41.4666 13.5402 41.5527 14.4466C42.8897 13.7518 44.3971 12.9654 45.015 11.7033C44.7341 11.1434 44.7229 10.5742 44.7098 10.0255C44.6985 9.56487 44.6892 9.13044 44.5263 8.71099L44.4551 8.52749L44.6161 8.41514C44.721 8.34211 44.8352 8.30466 44.9551 8.30466C45.3296 8.30466 45.6292 8.66231 45.8127 8.98064C46.1366 8.62673 46.4363 8.46008 46.7415 8.46008C47.3706 8.46008 47.7395 9.17351 48.0972 9.8626C48.202 10.0648 48.3107 10.2727 48.4193 10.4525L48.4492 10.4993L48.4548 10.5554C48.556 11.458 47.8893 12.0179 47.3014 12.5141C47.0504 12.7257 46.8126 12.9242 46.646 13.1358C46.5992 13.2088 46.5505 13.2837 46.5018 13.3567H54.902C55.3158 12.4167 55.3214 12.3868 55.5686 11.7745C55.8776 10.7127 56.0929 9.6585 56.2165 8.6155C56.3382 7.5725 56.1903 6.57256 55.7689 5.61008H55.7671Z" fill="#04FFB4"/>
<path d="M128.391 38.7225H125.745V41.5969H124.043V34.6123H125.745V37.3481H128.391V34.6123H130.093V41.5969H128.391V38.7225Z" fill="white"/>
<path d="M137.584 35.9753H135.007V37.389H137.286V38.7017H135.007V40.2334H137.584V41.5966H133.305V34.6121H137.584V35.9753Z" fill="white"/>
<path d="M145.027 40.3626H142.42L142.003 41.5966H140.222L142.75 34.6121H144.72L147.248 41.5966H145.446L145.029 40.3626H145.027ZM143.724 36.4921L142.868 39.0481H144.589L143.724 36.4921Z" fill="white"/>
<path d="M151.704 34.612V40.282H153.933V41.5947H150.002V34.6101H151.704V34.612Z" fill="white"/>
<path d="M156.359 34.6121H161.762V35.9753H159.912V41.5966H158.21V35.9753H156.359V34.6121Z" fill="white"/>
<path d="M168.956 38.7223H166.31V41.5966H164.61V34.6121H166.31V37.3478H168.956V34.6121H170.658V41.5966H168.956V38.7223Z" fill="white"/>
<path d="M119.143 37.4114H58.7014V38.9899H119.143V37.4114Z" fill="white"/>
<path d="M236 37.4114H175.558V38.9899H236V37.4114Z" fill="white"/>
<path d="M80.3104 15.7967C85.6565 15.7967 88.5421 17.7966 88.5421 21.7982C88.5421 26.2904 85.8194 28.9793 79.1307 28.9793H58.7014L63.0625 23.3393H79.655C81.2617 23.3393 81.9826 22.8805 81.9826 21.7326C81.9826 20.5848 81.2617 20.1578 79.655 20.1578H67.7176C62.0776 20.1578 59.486 17.6318 59.486 13.8624C59.486 9.72972 62.2405 7.04077 68.8973 7.04077H87.9503L83.5892 12.7464H68.373C66.7982 12.7464 66.0455 13.1396 66.0455 14.2556C66.0455 15.3717 66.8001 15.7967 68.373 15.7967H80.3104Z" fill="white"/>
<path d="M116.842 7.04077L112.447 12.7464H104.608V28.9793H97.8205V12.7464H87.5234L91.9183 7.04077H116.842Z" fill="white"/>
<path d="M122.341 28.9795L126.44 23.3394H131.949C133.262 23.3394 134.803 23.3394 135.852 23.405C135.262 22.6185 134.342 21.274 133.621 20.2235L129.687 14.4187L119.39 28.9795H111.355L125.423 9.14003C126.341 7.86109 127.685 6.6814 129.818 6.6814C131.951 6.6814 133.196 7.76372 134.148 9.14003L147.854 28.9795H122.341Z" fill="white"/>
<path d="M169.793 28.1592L156.348 16.0908V28.9794H150.184V10.7784C150.184 7.85914 151.955 6.67944 153.89 6.67944C154.71 6.67944 155.53 6.87606 156.612 7.85914L170.057 19.9276V7.03897H176.255V25.2063C176.255 28.1255 174.484 29.3389 172.518 29.3389C171.666 29.3389 170.845 29.1423 169.795 28.1592H169.793Z" fill="white"/>
<path d="M208.159 23.3393L203.798 28.9793H192.78C185.172 28.9793 179.564 24.1594 179.564 17.7966C179.564 11.4337 185.172 7.04077 192.78 7.04077H208.159L203.798 12.7464H192.78C189.108 12.7464 186.352 14.9429 186.352 18.0924C186.352 21.242 189.074 23.3393 192.78 23.3393H208.159Z" fill="white"/>
<path d="M236 23.3393L231.639 28.9793H210.521V7.04077H235.935L231.54 12.7464H217.34V15.3698H234.721L230.819 20.3545H217.34V23.3393H236Z" fill="white"/>
</svg>
