<svg width="159" height="64" viewBox="0 0 159 64" fill="none" xmlns="http://www.w3.org/2000/svg">
<path fill-rule="evenodd" clip-rule="evenodd" d="M75.8546 45.0969V32.3608H82.4279C85.1215 32.3608 87.3949 31.4583 89.2483 29.6782L89.6931 29.2269C93.0786 25.5415 92.8562 19.8002 89.2483 16.3906C87.4444 14.5855 84.9732 13.6077 82.4279 13.6578H71.876V45.0969H75.8546ZM75.8547 28.4997V17.5186H82.5279C83.9615 17.5186 85.3208 18.0701 86.3342 19.073C88.4844 21.1789 88.5338 24.6889 86.4577 26.87C85.4444 27.9481 84.0109 28.5498 82.5279 28.4997H75.8547ZM108.252 25.2655C106.547 23.686 104.224 22.8838 101.283 22.8838C97.5024 22.8838 94.6606 24.2877 92.7825 27.0706L96.2915 29.3019C97.5765 27.3965 99.3311 26.4438 101.555 26.4438C102.964 26.4438 104.323 26.9703 105.385 27.923C106.423 28.8256 107.016 30.1293 107.016 31.5082V32.4358C105.484 31.5834 103.557 31.1321 101.184 31.1321C98.4167 31.1321 96.1927 31.784 94.537 33.1127C92.8813 34.4415 92.0411 36.1965 92.0411 38.4278C91.9917 40.4585 92.8566 42.389 94.3887 43.6927C95.9456 45.0967 97.9225 45.7986 100.245 45.7986C102.988 45.7986 105.163 44.5702 106.819 42.1132H106.992V45.0967H110.797V31.8341C110.797 29.0512 109.957 26.845 108.252 25.2655ZM97.4535 41.1353C96.6379 40.5336 96.1436 39.5558 96.1436 38.5028C96.1436 37.3245 96.6873 36.3467 97.7501 35.5695C98.8376 34.7923 100.197 34.3912 101.803 34.3912C104.028 34.3661 105.758 34.8675 106.994 35.8704C106.994 37.5752 106.326 39.0544 105.016 40.3079C103.83 41.5113 102.224 42.1882 100.543 42.1882C99.4308 42.2133 98.3433 41.8373 97.4535 41.1353ZM119.347 54.5484L132.642 23.5857H128.317L122.164 39.0294H122.09L115.788 23.5857H111.464L120.187 43.7177L115.245 54.5484H119.347Z" fill="white"/>
<path d="M62.1188 29.6031C62.1188 28.3746 62.0199 27.1462 61.8222 25.9427H45.043V32.8874H54.6558C54.2604 35.1187 52.9754 37.1244 51.0973 38.378V42.8907H56.8305C60.1913 39.7569 62.1188 35.1187 62.1188 29.6031Z" fill="white"/>
<path d="M45.0439 47.2529C49.838 47.2529 53.8907 45.6484 56.8314 42.8906L51.0983 38.3778C49.492 39.4809 47.441 40.1077 45.0439 40.1077C40.3981 40.1077 36.469 36.9237 35.0604 32.6616H29.1543V37.3248C32.1691 43.4171 38.3223 47.2529 45.0439 47.2529Z" fill="white"/>
<path d="M35.061 32.6616C34.3195 30.4303 34.3195 27.9984 35.061 25.742V21.1039H29.1539C26.6082 26.1933 26.6082 32.2103 29.1539 37.2997L35.061 32.6616Z" fill="white"/>
<path d="M45.0439 18.296C47.5892 18.2458 50.0357 19.2236 51.8644 21.0037L56.955 15.839C53.7177 12.7804 49.4673 11.1006 45.0439 11.1507C38.3223 11.1507 32.1691 15.0117 29.1543 21.1039L35.0604 25.7671C36.469 21.48 40.3981 18.296 45.0439 18.296Z" fill="white"/>
</svg>
