<svg width="160" height="64" viewBox="0 0 160 64" fill="none" xmlns="http://www.w3.org/2000/svg">
<path d="M154.86 26.1366C154.376 22.3669 153.023 18.9338 150.655 16.4207C148.142 14.0528 144.709 12.6994 140.939 12.2152C137.315 11.731 134.847 11.8763 134.847 11.8763C134.847 11.8763 132.383 11.7794 128.756 12.2152C124.986 12.6994 121.553 14.0528 119.04 16.4207C116.672 18.9338 115.319 22.3669 114.835 26.1366C114.35 29.761 114.447 32.2281 114.447 32.2281C114.447 32.2281 114.35 34.6928 114.786 38.3196C115.27 42.0893 116.624 45.5224 118.992 48.0355C121.505 50.4034 124.938 51.7568 128.707 52.241C132.332 52.7252 134.799 52.58 134.799 52.58C134.799 52.58 137.264 52.6768 140.891 52.241C144.66 51.7568 148.093 50.4034 150.606 48.0355C152.974 45.5224 154.328 42.0893 154.812 38.3196C155.296 34.6952 155.151 32.2281 155.151 32.2281C155.151 32.2281 155.345 29.7634 154.86 26.1366Z" fill="white"/>
<path d="M121.94 26.2817H125.613C126.194 26.2817 126.676 26.3786 127.16 26.5723C127.645 26.7659 128.03 27.0565 128.368 27.393C128.707 27.7295 128.998 28.1169 129.189 28.6011C129.383 29.0854 129.48 29.5672 129.48 30.0998C129.48 30.6325 129.383 31.1143 129.189 31.5985C128.996 32.0827 128.705 32.4701 128.368 32.8066C128.032 33.1431 127.596 33.4361 127.16 33.6274C126.725 33.8211 126.194 33.9179 125.613 33.9179H123.969V36.9637H121.986V26.2793H121.938L121.94 26.2817ZM123.923 28.1193V32.0343H125.47C125.761 32.0343 126.051 31.9859 126.291 31.889C126.531 31.7922 126.727 31.6469 126.921 31.4532C127.114 31.2595 127.211 31.0658 127.308 30.8237C127.405 30.5816 127.453 30.3395 127.453 30.0514C127.453 29.7633 127.405 29.5187 127.308 29.2791C127.211 29.0369 127.066 28.8433 126.921 28.6496C126.727 28.4559 126.533 28.3106 126.291 28.2138C126.049 28.1169 125.759 28.0685 125.47 28.0685H123.923V28.1169V28.1193ZM134.075 36.9661C133.542 36.9661 133.061 36.8692 132.528 36.6755C132.044 36.4819 131.562 36.1913 131.175 35.8548C130.787 35.4674 130.451 35.0316 130.209 34.5014C129.966 33.9712 129.821 33.3417 129.821 32.6638C129.821 31.9859 129.918 31.3588 130.16 30.8261C130.402 30.2935 130.741 29.8601 131.126 29.4727C131.511 29.0854 131.995 28.8433 132.48 28.652C133.012 28.4583 133.494 28.3615 134.075 28.3615C134.656 28.3615 135.186 28.4583 135.622 28.652C136.106 28.8457 136.491 29.1362 136.83 29.4727V28.3615H138.813V36.9661H136.83V35.7579C136.54 36.1453 136.106 36.4359 135.622 36.6755C135.138 36.8692 134.656 36.9661 134.075 36.9661ZM134.414 35.1769C134.801 35.1769 135.138 35.1285 135.428 34.9832C135.719 34.8379 136.009 34.6927 136.249 34.4505C136.489 34.2084 136.637 33.9663 136.782 33.6782C136.927 33.3877 136.976 33.0487 136.976 32.7122C136.976 32.3757 136.927 32.0343 136.782 31.7462C136.637 31.4556 136.491 31.1651 136.249 30.9738C136.007 30.7317 135.765 30.5865 135.428 30.4412C135.089 30.2475 134.751 30.1991 134.414 30.1991C134.077 30.1991 133.736 30.2475 133.4 30.3928C133.061 30.538 132.818 30.6833 132.579 30.9254C132.339 31.1675 132.143 31.4096 132.046 31.6977C131.901 31.9883 131.852 32.3272 131.852 32.6638C131.852 33.0003 131.901 33.3393 132.046 33.6298C132.191 33.9203 132.385 34.2109 132.579 34.453C132.821 34.6951 133.111 34.8403 133.4 34.9856C133.69 35.0825 134.029 35.1793 134.414 35.1793M141.568 28.4123L143.985 34.2617L146.207 28.4123H148.287L143.212 40.8834H141.181L142.97 36.5811L139.489 28.4123H141.568Z" fill="#433636"/>
<path d="M92.8048 24.9283V39.3824H87.5849L84.0089 27.4899H83.9121L84.1057 39.3824H80.5273V24.9283H85.9409L89.3257 36.385H89.3741L89.1804 24.9283H92.8048Z" fill="white"/>
<path d="M17.6851 39.5276L20.3919 24.9283H26.8708L29.5776 39.5276H25.6602L23.6797 26.2333H23.6313L21.6 39.5276H17.6851Z" fill="white"/>
<path d="M48.4283 24.9283L48.7673 39.5276H45.0944L44.9976 26.3786H44.9007L42.4845 39.5276H38.7608L36.3445 26.3786H36.2477L36.1509 39.5276H32.478L32.8146 24.9283H38.8092L40.5984 36.0945H40.6469L42.4845 24.9283H48.4283Z" fill="white"/>
<path d="M71.2954 37.3052C72.3099 37.3052 72.6488 36.6273 72.6972 36.2423C72.7457 36.0971 72.7457 35.855 72.7457 35.6637V24.9309H76.4669V35.4216C76.4669 35.7121 76.4185 36.2423 76.4185 36.3876C76.1764 39.0944 74.0022 40.012 71.293 40.012C68.5838 40.012 66.458 39.1404 66.2183 36.3876C66.2183 36.2423 66.1699 35.7097 66.1699 35.4216V24.9309H69.8912V35.7581C69.8912 35.9518 69.8912 36.1455 69.9396 36.3392C69.988 36.6297 70.2785 37.3052 71.293 37.3052" fill="white"/>
<path d="M11.4965 35.3707C11.6418 35.7096 11.5933 36.1914 11.5449 36.4335C11.3997 36.9178 11.1091 37.3996 10.0947 37.3996C9.17707 37.3996 8.64443 36.8669 8.64443 36.0946V34.6928H4.72949V35.804C4.72949 39.0919 7.29103 40.0579 10.0463 40.0579C12.8015 40.0579 14.8812 39.1403 15.2177 36.7216C15.4114 35.4651 15.2662 34.6443 15.2177 34.3054C14.5883 31.2596 9.02938 30.342 8.64443 28.6012C8.59601 28.3107 8.59601 28.0202 8.64443 27.8289C8.74127 27.3447 9.08023 26.8629 9.99783 26.8629C10.867 26.8629 11.3512 27.3955 11.3512 28.1679V29.0855H14.9756V28.071C14.9756 24.88 12.1236 24.3982 10.0438 24.3982C7.43387 24.3982 5.30572 25.2674 4.92076 27.6376C4.82392 28.2671 4.82392 28.8458 4.96918 29.6205C5.55025 32.6639 10.7702 33.487 11.4941 35.3731" fill="white"/>
<path d="M59.0159 35.3706C59.1611 35.7095 59.1127 36.1429 59.0643 36.4335C58.9674 36.9177 58.6285 37.3995 57.6625 37.3995C56.6964 37.3995 56.2122 36.8668 56.2122 36.0945V34.6927H52.3457V35.804C52.3457 39.0434 54.9072 40.0094 57.614 40.0094C60.3208 40.0094 62.4006 39.1378 62.7371 36.7216C62.9308 35.465 62.7855 34.6442 62.7371 34.3537C62.1076 31.308 56.6456 30.4388 56.2606 28.7464C56.1638 28.4559 56.2122 28.1654 56.2606 27.9741C56.3575 27.4899 56.6964 27.0081 57.5656 27.0081C58.4348 27.0081 58.919 27.5407 58.919 28.313V29.2306H62.5434V28.2162C62.5434 25.0736 59.6914 24.5918 57.66 24.5918C55.0985 24.5918 52.9704 25.4126 52.5854 27.7828C52.4885 28.4123 52.4401 28.991 52.6338 29.7173C53.164 32.6662 58.2895 33.487 59.0134 35.373" fill="white"/>
<path d="M101.796 37.1574C102.859 37.1574 103.198 36.4795 103.295 36.0945C103.344 35.9493 103.344 35.7071 103.344 35.5619V33.4361H101.845V31.308H107.016V35.2229C107.016 35.5135 107.016 35.7071 106.968 36.1889C106.726 38.8473 104.406 39.8133 101.796 39.8133C99.1865 39.8133 96.9131 38.8473 96.671 36.1889C96.6226 35.7047 96.6226 35.511 96.6226 35.2229V29.083C96.6226 28.8409 96.671 28.3591 96.671 28.117C97.0099 25.3617 99.1841 24.4926 101.796 24.4926C104.409 24.4926 106.68 25.3617 106.92 28.117C106.968 28.5528 106.968 29.083 106.968 29.083V29.5672H103.295V28.7464C103.295 28.7464 103.295 28.4075 103.247 28.1654C103.198 27.8264 102.908 27.1025 101.796 27.1025C100.685 27.1025 100.443 27.8264 100.346 28.1654C100.298 28.3591 100.298 28.6012 100.298 28.8433V35.5134C100.298 35.7071 100.298 35.9008 100.346 36.0461C100.346 36.5303 100.734 37.1574 101.796 37.1574Z" fill="white"/>
</svg>
