<svg width="159" height="64" viewBox="0 0 159 64" fill="none" xmlns="http://www.w3.org/2000/svg">
<path d="M88.9237 32.5381C88.9237 46.4831 77.7488 57.7877 63.9638 57.7877C50.1788 57.7877 39.0039 46.4831 39.0039 32.5381C39.0039 18.5931 50.1788 7.28845 63.9638 7.28845C77.7488 7.28845 88.9237 18.5931 88.9237 32.5381Z" fill="white"/>
<path d="M121.304 32.5381C121.304 46.4831 110.129 57.7877 96.3442 57.7877C82.5592 57.7877 71.3843 46.4831 71.3843 32.5381C71.3843 18.5931 82.5592 7.28845 96.3442 7.28845C110.129 7.28845 121.304 18.5931 121.304 32.5381Z" fill="white"/>
<path fill-rule="evenodd" clip-rule="evenodd" d="M80.1544 51.7561C85.5211 47.1248 88.9241 40.2336 88.9241 32.5383C88.9241 24.843 85.5211 17.9517 80.1544 13.3204C74.7878 17.9517 71.3848 24.843 71.3848 32.5383C71.3848 40.2336 74.7878 47.1248 80.1544 51.7561Z" fill="#6C6BBD"/>
</svg>
