<svg width="159" height="64" viewBox="0 0 159 64" fill="none" xmlns="http://www.w3.org/2000/svg">
<path d="M142.971 39.0402C140.843 39.0484 139.124 40.7803 139.131 42.9088C139.131 42.9115 139.131 42.9136 139.131 42.9158C139.119 45.0443 140.835 46.7795 142.964 46.7914C142.966 46.7914 142.968 46.7914 142.971 46.7914C145.088 46.7914 146.81 45.0551 146.81 42.9158C146.822 40.7873 145.107 39.0521 142.978 39.0402C142.976 39.0402 142.973 39.0402 142.971 39.0402ZM130.335 36.0471C130.335 33.1152 127.854 30.7416 124.792 30.7416C121.73 30.7416 119.248 33.119 119.248 36.0471C119.248 38.9753 121.734 41.3495 124.795 41.3495C127.856 41.3495 130.335 38.9759 130.335 36.0471H130.335ZM130.357 25.7347H136.473V46.3558H130.357V45.0373C128.574 46.2682 126.458 46.9266 124.291 46.9245C118.337 46.9245 113.511 42.0544 113.511 36.0466C113.511 30.0387 118.338 25.1687 124.291 25.1687C126.543 25.1687 128.628 25.864 130.357 27.0559V25.7341V25.7347ZM81.3993 28.4215V25.7379H75.1356V46.3553H81.4139V36.7272C81.4139 33.4782 84.9005 31.7349 87.3212 31.7349H87.3931V25.7379C84.9075 25.7379 82.6275 26.8114 81.3993 28.4215ZM65.7959 36.0471C65.7959 33.1152 63.3141 30.7416 60.2523 30.7416C57.1905 30.7416 54.7087 33.119 54.7087 36.0471C54.7087 38.9753 57.1943 41.3495 60.2555 41.3495C63.3168 41.3495 65.7954 38.9759 65.7954 36.0471H65.7959ZM65.8176 25.7347H71.9374V46.3558H65.8176V45.0373C64.0884 46.226 62.0031 46.9245 59.7518 46.9245C53.7975 46.9245 48.9713 42.0544 48.9713 36.0466C48.9713 30.0387 53.7981 25.1687 59.7518 25.1687C62.0031 25.1687 64.0884 25.864 65.8176 27.0559V25.7341V25.7347ZM102.641 25.1833C100.198 25.1833 97.8858 25.9468 96.3373 28.058V25.7385H90.2466V46.3558H96.413V35.5212C96.413 32.3875 98.495 30.8492 101.005 30.8492C103.692 30.8492 105.241 32.4702 105.241 35.4779V46.3558H111.35V33.2445C111.35 28.4464 107.568 25.1833 102.641 25.1833H102.641ZM40.0602 46.3558H46.4646V16.5498H40.0602V46.3558ZM11.9293 46.3629H18.7119V16.5427H11.9325L11.9287 46.3634L11.9293 46.3629ZM35.6512 16.5427C35.6512 22.9975 33.1585 29.0053 28.7138 33.4685L38.0859 46.3634H29.7115L19.5289 32.3517L22.1584 30.3634C26.4987 27.0987 29.0395 21.9738 29.0092 16.5427H35.6512Z" fill="white"/>
</svg>
