<svg width="159" height="64" viewBox="0 0 159 64" fill="none" xmlns="http://www.w3.org/2000/svg">
<path fill-rule="evenodd" clip-rule="evenodd" d="M76.6013 25.045C78.0534 23.2454 80.3122 21.7561 82.993 21.7561C89.0373 21.7561 93.7907 26.7578 93.7907 32.9261C93.7907 39.3551 89.0124 44.1085 83.2785 44.1085C80.2254 44.1085 77.8921 42.5447 77.0357 41.2415H76.9488V50.6864C76.9488 50.6864 76.924 50.7981 76.8868 50.8353C76.8495 50.8726 76.7875 50.8974 76.7378 50.8974H71.3638C71.3638 50.8974 71.2521 50.8726 71.2149 50.8353C71.1777 50.7981 71.1528 50.7361 71.1528 50.6864V21.9795C71.1528 21.9795 71.1777 21.8678 71.2149 21.8306C71.2521 21.7933 71.3142 21.7685 71.3638 21.7685H76.3903C76.3903 21.7685 76.502 21.7933 76.5393 21.8306C76.5765 21.8678 76.6013 21.9299 76.6013 21.9795V25.0575V25.045ZM82.5338 38.6352C82.087 38.6476 81.6402 38.6104 81.1934 38.5235C80.0888 38.2877 79.0711 37.7416 78.2768 36.9225C77.4825 36.1158 76.9488 35.0856 76.7502 33.9686C76.6882 33.6459 76.6634 33.3233 76.651 33.0006C76.651 32.6406 76.6758 32.2807 76.7378 31.9208C76.9364 30.8038 77.4701 29.7737 78.2644 28.967C79.0587 28.1602 80.064 27.6017 81.181 27.3659C81.6278 27.2666 82.0746 27.2294 82.5214 27.2418C83.2537 27.2418 83.9735 27.4032 84.6437 27.6886C85.3263 27.9741 85.9345 28.396 86.4557 28.9297C86.977 29.4634 87.3742 30.084 87.6472 30.7666C87.9202 31.4492 88.0568 32.1814 88.0444 32.9261C88.0444 33.6708 87.9202 34.403 87.6472 35.0856C87.3742 35.7682 86.9646 36.4012 86.4557 36.9349C85.9345 37.4686 85.3263 37.8905 84.6437 38.176C83.9735 38.4615 83.2537 38.6228 82.5338 38.6352Z" fill="white"/>
<path d="M41.7014 26.0627C40.4603 23.4564 38.1022 21.7809 34.5526 21.7809C33.4604 21.8057 32.3931 22.0663 31.425 22.5628C30.4569 23.0592 29.613 23.7791 28.9676 24.6479L28.8435 24.8092V14.5949C28.8435 14.5949 28.8187 14.4832 28.7814 14.4335C28.7442 14.3963 28.6822 14.3715 28.6201 14.3715H23.606C23.606 14.3715 23.4943 14.3963 23.4571 14.4335C23.4198 14.4707 23.395 14.5328 23.395 14.5949V43.8851C23.395 43.8851 23.4198 43.9968 23.4571 44.034C23.4943 44.0712 23.5564 44.0961 23.606 44.0961H28.98C28.98 44.0961 29.0917 44.0712 29.1414 44.034C29.1786 43.9968 29.2034 43.9347 29.2034 43.8851V31.3995C29.2034 28.9669 30.8169 27.2542 33.4108 27.2542C36.2405 27.2542 36.9604 29.5875 36.9604 31.958V43.8851C36.9604 43.8851 36.9852 43.9968 37.0224 44.034C37.0597 44.0712 37.1217 44.0961 37.1714 44.0961H42.533C42.533 44.0961 42.6447 44.0712 42.6943 44.034C42.7315 43.9968 42.7564 43.9347 42.7564 43.8851V31.2382C42.7564 30.8038 42.7564 30.3818 42.6943 29.9722C42.6074 28.6194 42.2599 27.2914 41.7014 26.0627Z" fill="white"/>
<path d="M14.8812 30.4069C14.8812 30.4069 12.1508 29.7615 11.1455 29.5009C10.1402 29.2402 8.3778 28.6942 8.3778 27.3662C8.3778 26.0382 9.79267 25.6162 11.2324 25.6162C12.672 25.6162 14.2731 25.9637 14.3972 27.5647C14.3972 27.6268 14.4344 27.6764 14.4717 27.7137C14.5089 27.7509 14.5709 27.7757 14.633 27.7757L19.9325 27.7509C19.9325 27.7509 19.9946 27.7509 20.0194 27.7261C20.0442 27.7137 20.0691 27.7013 20.0939 27.6764C20.1187 27.6516 20.1311 27.6268 20.1435 27.602C20.1435 27.5772 20.1559 27.5399 20.1435 27.5151C19.8208 22.4017 15.328 20.5773 11.1951 20.5773C6.29274 20.5525 2.70592 23.7918 2.70592 27.3662C2.70592 29.9725 3.43818 32.4175 9.23417 34.1178C10.2519 34.4157 11.6295 34.8004 12.8334 35.1355C14.2855 35.5451 15.0674 36.1532 15.0674 37.1089C15.0674 38.2259 13.4539 39.0078 11.8653 39.0078C9.56927 39.0078 7.931 38.1514 7.79448 36.6249C7.79448 36.5628 7.75725 36.5132 7.72001 36.4759C7.68278 36.4387 7.62072 36.4139 7.57108 36.4139L2.28395 36.4387C2.28395 36.4387 2.22189 36.4387 2.19707 36.4511C2.17225 36.4511 2.14742 36.4759 2.1226 36.5007C2.09778 36.5256 2.08537 36.5504 2.07296 36.5752C2.07296 36.6 2.06055 36.6373 2.06055 36.6621C2.30877 41.49 6.96294 44.0839 11.3068 44.0839C17.773 44.0839 20.702 40.4475 20.702 37.0344C20.702 35.4334 20.3421 31.7845 14.906 30.3945L14.8812 30.4069Z" fill="white"/>
<path d="M55.2423 20.5027C50.2282 20.5027 47.7336 22.203 45.723 23.5682L45.661 23.6055C45.5617 23.6799 45.4872 23.7792 45.4624 23.9033C45.4376 24.0274 45.4624 24.1516 45.512 24.2633L47.4978 27.6763C47.535 27.7384 47.5847 27.8004 47.6467 27.8377C47.7088 27.8749 47.7833 27.9121 47.8453 27.9245C47.9198 27.9369 47.9942 27.9245 48.0563 27.9245C48.1308 27.8997 48.1928 27.8749 48.2425 27.8252L48.4038 27.7011C49.4339 26.8324 51.0846 25.6781 55.0934 25.3678C57.3274 25.1941 59.2511 25.7774 60.666 27.093C62.2298 28.5327 63.1606 30.8536 63.1606 33.311C63.1606 37.8286 60.5046 40.6707 56.2228 40.7204C52.6981 40.6956 50.3275 38.8587 50.3275 36.1531C50.3275 34.7134 50.9729 33.7702 52.2513 32.8393C52.3505 32.7649 52.4126 32.6656 52.4498 32.5539C52.4747 32.4422 52.4498 32.3181 52.4002 32.2064L50.6254 28.843C50.6254 28.843 50.5509 28.7313 50.4889 28.6816C50.4392 28.6444 50.3772 28.6071 50.3027 28.5823C50.2407 28.5575 50.1662 28.5575 50.0917 28.5699C50.0173 28.5699 49.9552 28.6071 49.8931 28.6444C47.895 29.8234 45.4376 31.9954 45.5741 36.1655C45.7354 41.465 50.1414 45.5235 55.8753 45.6848H56.5579C63.3716 45.4614 68.2864 40.4101 68.2864 33.5468C68.2864 27.2543 63.6943 20.5151 55.2175 20.5151L55.2423 20.5027Z" fill="white"/>
<path fill-rule="evenodd" clip-rule="evenodd" d="M104.874 14.4462H150.746C153.91 14.4462 156.479 17.0153 156.479 20.1801V45.2878C156.479 48.4526 153.91 51.0217 150.746 51.0217H104.874C101.709 51.0217 99.1401 48.4526 99.1401 45.2878V20.1801C99.1401 17.0153 101.709 14.4462 104.874 14.4462ZM115.163 34.3412C118.986 34.3412 121.728 31.5487 121.728 27.6392C121.728 23.7297 118.986 20.9372 115.163 20.9372H108.411C108.337 20.9372 108.25 20.9744 108.2 21.0241C108.138 21.0861 108.113 21.1606 108.113 21.235V39.7772C108.113 39.8517 108.151 39.9386 108.2 39.9882C108.262 40.0503 108.337 40.0751 108.411 40.0751H110.956C111.03 40.0751 111.117 40.0379 111.167 39.9882C111.229 39.9262 111.253 39.8517 111.253 39.7772V34.639C111.253 34.5646 111.291 34.4777 111.34 34.4281C111.402 34.366 111.477 34.3412 111.551 34.3412H115.163ZM114.964 23.7545C117.049 23.7545 118.576 25.3928 118.576 27.6392C118.576 29.8856 117.037 31.5239 114.964 31.5239H111.551C111.477 31.5239 111.39 31.4866 111.34 31.437C111.278 31.3749 111.253 31.3005 111.253 31.226V24.0648C111.253 23.9903 111.291 23.9034 111.34 23.8538C111.402 23.7917 111.477 23.7669 111.551 23.7669H114.964V23.7545ZM122.473 36.5255C122.448 35.9298 122.572 35.3341 122.833 34.788C123.094 34.2419 123.491 33.7827 123.975 33.4352C124.968 32.6905 126.494 32.3058 128.765 32.2189L131.173 32.132V31.4246C131.173 30.0097 130.218 29.4016 128.691 29.4016C127.164 29.4016 126.196 29.9476 125.961 30.8288C125.948 30.8909 125.898 30.9405 125.849 30.9902C125.799 31.0274 125.737 31.0522 125.663 31.0398H123.292C123.292 31.0398 123.205 31.0398 123.168 31.015C123.131 31.0026 123.094 30.9654 123.069 30.9405C123.044 30.9033 123.019 30.8661 123.007 30.8288C123.007 30.7916 122.994 30.742 123.007 30.7047C123.367 28.6072 125.104 27.0062 128.815 27.0062C132.749 27.0062 134.177 28.8431 134.177 32.343V39.7772C134.177 39.7772 134.177 39.8517 134.152 39.8889C134.139 39.9262 134.115 39.9634 134.09 39.9882C134.065 40.0131 134.028 40.0379 133.991 40.0503C133.953 40.0627 133.916 40.0751 133.879 40.0751H131.483C131.483 40.0751 131.409 40.0751 131.372 40.0503C131.335 40.0379 131.297 40.0131 131.272 39.9882C131.248 39.9634 131.223 39.9262 131.21 39.8889C131.198 39.8517 131.186 39.8145 131.186 39.7772V39.2187C131.186 39.2187 131.186 39.1195 131.148 39.0822C131.124 39.045 131.086 39.0078 131.037 38.9953C130.987 38.9829 130.937 38.9705 130.9 38.9953C130.863 39.0202 130.813 39.0326 130.776 39.0698C130.056 39.8517 128.89 40.4226 127.04 40.4226C124.322 40.4226 122.51 39.0078 122.51 36.5504L122.473 36.5255ZM131.173 34.9121V34.3412L128.058 34.5025C126.42 34.5894 125.452 35.272 125.452 36.4138C125.452 37.4564 126.333 38.0273 127.859 38.0273C129.945 38.0273 131.173 36.8979 131.173 34.9121ZM136.56 43.5378V45.6973C136.56 45.7718 136.572 45.8339 136.622 45.8959C136.659 45.958 136.721 45.9952 136.783 46.02C137.205 46.1317 137.639 46.1938 138.086 46.1814C140.407 46.1814 142.529 45.3374 143.746 42.0237L149.082 27.7757C149.082 27.7757 149.107 27.6764 149.082 27.6392C149.082 27.5895 149.058 27.5399 149.033 27.5027C149.008 27.4654 148.971 27.4282 148.921 27.4034C148.871 27.3785 148.834 27.3661 148.785 27.3661H146.302C146.24 27.3661 146.178 27.391 146.129 27.4282C146.079 27.4654 146.042 27.5151 146.017 27.5771L143.075 36.6C143.075 36.6 143.013 36.7117 142.964 36.7489C142.914 36.7862 142.852 36.7986 142.79 36.7986C142.728 36.7986 142.666 36.7738 142.616 36.7489C142.567 36.7117 142.529 36.6621 142.505 36.6L139.116 27.5523C139.116 27.5523 139.054 27.4406 139.005 27.4034C138.955 27.3661 138.893 27.3537 138.831 27.3537H136.398C136.398 27.3537 136.299 27.3661 136.262 27.391C136.225 27.4158 136.187 27.4406 136.15 27.4902C136.125 27.5275 136.1 27.5771 136.1 27.6268C136.1 27.6764 136.1 27.7261 136.113 27.7633L141.102 40.584C141.127 40.646 141.127 40.7205 141.102 40.795L140.941 41.2914C140.755 41.912 140.37 42.4456 139.849 42.818C139.327 43.1903 138.682 43.3765 138.049 43.3392C137.677 43.3392 137.304 43.302 136.932 43.2399C136.882 43.2399 136.845 43.2399 136.795 43.2399C136.746 43.2399 136.709 43.2772 136.671 43.302C136.634 43.3268 136.609 43.3641 136.584 43.4137C136.56 43.4509 136.56 43.5006 136.56 43.5502V43.5378Z" fill="white"/>
</svg>
