<svg width="160" height="64" viewBox="0 0 160 64" fill="none" xmlns="http://www.w3.org/2000/svg">
<path d="M147.641 41.7524H143.331C142.439 41.7524 141.695 41.1618 141.695 40.4235C141.695 39.5376 142.439 39.0947 143.331 39.0947H151.208L152.993 35.1113H143.331C139.318 35.1113 137.087 37.4706 137.087 40.5712C137.087 43.6718 139.318 45.7358 142.736 45.7358H147.046C147.939 45.7358 148.682 46.3264 148.682 47.0646C148.682 47.8029 148.088 48.3935 147.046 48.3935H137.533V52.3769H147.046C151.059 52.3769 153.29 50.0176 153.29 46.7694C153.29 43.5211 151.208 41.7524 147.641 41.7524ZM130.252 41.7524H125.941C125.049 41.7524 124.305 41.1618 124.305 40.4235C124.305 39.5376 125.049 39.0947 125.941 39.0947H133.818L135.603 35.1113H125.941C121.928 35.1113 119.7 37.4706 119.7 40.5712C119.7 43.6718 121.928 45.7358 125.349 45.7358H129.66C130.552 45.7358 131.296 46.3264 131.296 47.0646C131.296 47.8029 130.701 48.3935 129.66 48.3935H120.147V52.3769H129.66C133.672 52.3769 135.9 50.0176 135.9 46.7694C136.049 43.5242 133.97 41.7524 130.252 41.7524ZM102.757 52.5215H117.621V48.5381H107.513V45.7358H117.473V41.7524H107.513V38.9501H117.621V34.9667H102.757V52.5246V52.5215ZM93.5414 42.4906H88.6362V38.9501H93.5414C94.88 38.9501 95.6237 39.836 95.6237 40.7219C95.6237 41.7555 94.88 42.4937 93.5414 42.4937M100.377 40.5743C100.377 37.1814 97.9973 34.9667 94.1332 34.9667H83.8766V52.5246H88.6331V46.4771H90.4179L95.7694 52.5246H101.418L95.6206 46.1818C98.5923 45.4436 100.377 43.3796 100.377 40.5743ZM74.9617 42.789H69.9077V38.9532H74.9617C76.3003 38.9532 77.044 39.8391 77.044 40.8726C77.044 41.9062 76.4491 42.7921 74.9617 42.7921M75.5566 34.9728H65.3V52.5307H70.0565V46.7755H75.5566C79.5694 46.7755 81.9492 44.2686 81.9492 40.8726C81.8005 37.3321 79.4238 34.9698 75.5566 34.9698M64.4107 34.9698H58.3186L53.8596 40.282L49.2519 34.9698H43.008L50.8849 43.6749L42.8593 52.5276H48.9513L53.7078 46.9201L58.4643 52.5276H64.705L56.6794 43.5272L64.4076 34.9698H64.4107ZM27.4031 52.5276H42.2644V48.5442H32.0077V45.742H41.9669V41.7585H32.0077V38.9563H42.2644V34.9728H27.4031V52.5307V52.5276ZM145.856 23.161L138.575 12.5395H132.628V29.9497H137.385V18.8822L144.815 29.9466H150.464V12.5395H145.856V23.164V23.161ZM118.508 22.5704L121.033 16.6675L123.558 22.5704H118.504H118.508ZM117.913 12.5364L110.184 30.0943H115.387L116.874 26.5538H125.049L126.536 30.0943H131.888L124.011 12.5395H117.916L117.913 12.5364ZM102.456 21.3892V21.0939C102.456 18.4393 103.944 16.6675 106.915 16.6675H112.118V12.3918H106.469C100.671 12.3918 97.6998 16.08 97.6998 20.9493V21.2446C97.6998 26.7045 101.118 29.8021 106.32 29.8021H107.956L109.887 25.8186H107.064C104.241 25.9663 102.456 24.3422 102.456 21.3923M90.5667 29.9497H95.3231V12.5395H90.5667V29.9497ZM81.3512 19.9158H76.4459V16.3753H81.3512C82.6898 16.3753 83.4335 17.2612 83.4335 18.1471C83.4335 19.1806 82.6898 19.9188 81.3512 19.9188M88.1869 18.1471C88.1869 14.7542 85.8071 12.5395 81.9461 12.5395H71.6895V30.0974H76.4459V23.9023H78.2308L83.5822 29.9528H89.3799L83.4366 23.6101C86.4082 23.0195 88.1931 20.8078 88.1931 18.1501M53.7109 29.9528H68.5722V25.9694H58.4643V23.1671H68.2747V19.1837H58.4643V16.3814H68.5722V12.5395H53.7109V29.9497V29.9528ZM38.7009 23.4593L34.685 12.5395H27.4031V29.9497H32.0108V17.4088L36.6186 29.9497H40.7801L45.3878 17.4088V29.9497H50.1443V12.5395H42.7137L38.7009 23.4563V23.4593ZM13.1367 22.5734L15.6621 16.6706L18.1876 22.5734H13.1336H13.1367ZM12.5387 12.5395L4.81055 29.9497H10.0132L11.5006 26.4092H19.6749L21.1623 29.9497H26.5137L18.6338 12.5395H12.5387Z" fill="white"/>
</svg>
