<svg width="159" height="64" viewBox="0 0 159 64" fill="none" xmlns="http://www.w3.org/2000/svg">
<path d="M54.1748 38.9099C52.6292 38.9099 51.1866 38.5664 49.8814 37.8795C48.6106 37.1925 47.5802 36.2308 46.7902 34.96C46.0346 33.6891 45.6567 32.2809 45.6567 30.7353C45.6567 29.1897 46.0346 27.7815 46.7902 26.545C47.5458 25.3085 48.5762 24.3468 49.8814 23.6255C51.1866 22.9386 52.5948 22.5951 54.1748 22.5951C55.7547 22.5951 57.163 22.9386 58.4338 23.6255C59.739 24.3124 60.7694 25.2742 61.4907 26.545C62.2463 27.7815 62.6241 29.1897 62.6241 30.7353C62.6241 32.2809 62.2463 33.6891 61.4907 34.96C60.735 36.1965 59.7046 37.1582 58.4338 37.8795C57.163 38.5664 55.7204 38.9099 54.1748 38.9099ZM54.1748 35.3721C55.48 35.3721 56.5447 34.96 57.3347 34.1013C58.1247 33.2426 58.5368 32.1435 58.5368 30.7353C58.5368 29.3271 58.1247 28.1936 57.3347 27.3693C56.5447 26.5106 55.5143 26.0985 54.1748 26.0985C52.8352 26.0985 51.7705 26.5106 50.9805 27.335C50.1905 28.1593 49.8127 29.2927 49.8127 30.701C49.8127 32.1092 50.1905 33.2426 50.9805 34.067C51.7705 34.96 52.8352 35.3721 54.1748 35.3721Z" fill="white"/>
<path d="M68.8745 27.8846C69.2524 27.3007 69.8019 26.8198 70.4888 26.442C71.1758 26.0642 72.0001 25.8925 72.9275 25.8925C74.0266 25.8925 74.9883 26.1672 75.8813 26.6824C76.7743 27.1976 77.4613 27.9533 77.9421 28.9493C78.4573 29.9454 78.7321 31.0788 78.7321 32.384C78.7321 33.6892 78.4573 34.8227 77.9421 35.8187C77.4269 36.8148 76.74 37.5704 75.8813 38.12C74.9883 38.6352 74.0266 38.9099 72.9275 38.9099C72.0345 38.9099 71.2101 38.7382 70.4888 38.3604C69.8019 37.9826 69.2524 37.5361 68.8745 36.9522V42.482H64.856V26.0642H68.8745V27.8846ZM74.6105 32.384C74.6105 31.4223 74.3357 30.6667 73.7518 30.1171C73.2023 29.5676 72.5153 29.2928 71.691 29.2928C70.8667 29.2928 70.2141 29.5676 69.6302 30.1171C69.0806 30.6667 68.8059 31.4567 68.8059 32.4184C68.8059 33.3801 69.0806 34.1357 69.6302 34.7196C70.1797 35.2692 70.8667 35.5439 71.691 35.5439C72.5153 35.5439 73.1679 35.2692 73.7518 34.7196C74.3357 34.1357 74.6105 33.3801 74.6105 32.384Z" fill="white"/>
<path d="M93.1928 32.2126C93.1928 32.5904 93.1584 32.9682 93.1241 33.346H84.0222C84.0909 34.136 84.3313 34.7542 84.8121 35.1664C85.293 35.5786 85.8425 35.7846 86.5295 35.7846C87.5255 35.7846 88.2468 35.3725 88.6246 34.5482H92.918C92.7119 35.3725 92.2998 36.1281 91.7159 36.7807C91.1663 37.4333 90.445 37.9828 89.5864 38.3607C88.7277 38.7385 87.766 38.9446 86.7012 38.9446C85.4304 38.9446 84.2626 38.6698 83.2665 38.1546C82.2705 37.6394 81.4805 36.8837 80.9309 35.8877C80.3814 34.8916 80.0723 33.7582 80.0723 32.453C80.0723 31.1478 80.347 29.98 80.8966 29.0183C81.4461 28.0222 82.2361 27.2666 83.2322 26.7514C84.2282 26.2362 85.396 25.9614 86.7012 25.9614C88.0064 25.9614 89.1055 26.2019 90.1016 26.7171C91.0976 27.2323 91.8533 27.9535 92.4028 28.9153C92.918 29.8426 93.1928 30.9417 93.1928 32.2126ZM89.0712 31.1822C89.0712 30.5296 88.8307 29.98 88.3499 29.6022C87.869 29.2244 87.2851 29.0183 86.5982 29.0183C85.9112 29.0183 85.3617 29.2244 84.8808 29.6022C84.4343 29.98 84.1595 30.5296 84.0222 31.2165H89.0712V31.1822Z" fill="white"/>
<path d="M103.325 25.9614C104.871 25.9614 106.073 26.4423 107 27.404C107.928 28.3657 108.374 29.6709 108.374 31.3539V38.7385H104.39V31.8691C104.39 31.0104 104.149 30.3578 103.703 29.9113C103.256 29.4305 102.638 29.2244 101.883 29.2244C101.127 29.2244 100.509 29.4648 100.062 29.9113C99.6156 30.3922 99.3752 31.0448 99.3752 31.8691V38.7385H95.3223V26.0645H99.3409V27.7475C99.753 27.1979 100.303 26.7514 100.99 26.4423C101.676 26.1332 102.466 25.9614 103.325 25.9614Z" fill="white"/>
<path d="M117.133 38.9099C115.93 38.9099 114.831 38.7038 113.87 38.326C112.908 37.9482 112.152 37.3986 111.568 36.643C111.019 35.8874 110.71 34.9943 110.675 33.9639H114.969C115.037 34.5478 115.243 34.9943 115.621 35.3378C115.965 35.6469 116.446 35.7843 117.029 35.7843C117.613 35.7843 118.094 35.6469 118.438 35.4065C118.781 35.1317 118.953 34.7539 118.953 34.3074C118.953 33.9296 118.816 33.5861 118.541 33.3457C118.266 33.1053 117.922 32.8648 117.545 32.7274C117.167 32.5557 116.583 32.384 115.862 32.1435C114.797 31.8344 113.938 31.5253 113.251 31.1818C112.564 30.8727 111.98 30.3918 111.5 29.7736C111.019 29.1554 110.778 28.331 110.778 27.335C110.778 25.8581 111.328 24.6903 112.461 23.8659C113.56 23.0073 115.037 22.5951 116.823 22.5951C118.609 22.5951 120.121 23.0073 121.22 23.8659C122.319 24.6903 122.937 25.8581 123.006 27.3693H118.644C118.609 26.8541 118.403 26.4419 118.06 26.1672C117.716 25.8581 117.236 25.7207 116.686 25.7207C116.205 25.7207 115.793 25.8581 115.518 26.0985C115.209 26.3389 115.072 26.6824 115.072 27.1632C115.072 27.6784 115.312 28.0906 115.827 28.3654C116.343 28.6402 117.098 28.9493 118.163 29.2927C119.228 29.6362 120.086 29.9797 120.739 30.2888C121.426 30.5979 122.01 31.0788 122.491 31.6627C122.971 32.2809 123.212 33.0366 123.212 33.9983C123.212 34.8913 122.971 35.7156 122.491 36.4713C122.01 37.2269 121.323 37.8108 120.43 38.2573C119.468 38.7038 118.403 38.9099 117.133 38.9099Z" fill="white"/>
<path d="M138.016 32.2126C138.016 32.5904 137.981 32.9682 137.947 33.346H128.845C128.914 34.136 129.154 34.7542 129.635 35.1664C130.116 35.5786 130.665 35.7846 131.352 35.7846C132.348 35.7846 133.07 35.3725 133.447 34.5482H137.741C137.535 35.3725 137.123 36.1281 136.539 36.7807C135.989 37.4333 135.268 37.9828 134.409 38.3607C133.55 38.7385 132.589 38.9446 131.524 38.9446C130.253 38.9446 129.085 38.6698 128.089 38.1546C127.093 37.6394 126.303 36.8837 125.754 35.8877C125.204 34.8916 124.895 33.7582 124.895 32.453C124.895 31.1478 125.17 29.98 125.719 29.0183C126.269 28.0222 127.059 27.2666 128.055 26.7514C129.051 26.2362 130.219 25.9614 131.524 25.9614C132.829 25.9614 133.928 26.2019 134.924 26.7171C135.92 27.2323 136.676 27.9535 137.226 28.9153C137.741 29.8426 138.016 30.9417 138.016 32.2126ZM133.894 31.1822C133.894 30.5296 133.653 29.98 133.173 29.6022C132.692 29.2244 132.108 29.0183 131.421 29.0183C130.734 29.0183 130.184 29.2244 129.704 29.6022C129.257 29.98 128.982 30.5296 128.845 31.2165H133.894V31.1822Z" fill="white"/>
<path d="M139.355 32.384C139.355 31.0788 139.595 29.9454 140.111 28.9493C140.626 27.9533 141.313 27.1976 142.206 26.6824C143.099 26.1672 144.061 25.8925 145.16 25.8925C146.087 25.8925 146.877 26.0642 147.598 26.442C148.32 26.8198 148.835 27.2663 149.213 27.8846V26.0985H153.231V38.7726H149.213V36.9865C148.835 37.5704 148.285 38.0513 147.564 38.4291C146.877 38.8069 146.053 38.9786 145.125 38.9786C144.061 38.9786 143.099 38.7039 142.206 38.1887C141.313 37.6391 140.626 36.8835 140.111 35.8874C139.595 34.857 139.355 33.6892 139.355 32.384ZM149.178 32.4184C149.178 31.4567 148.903 30.701 148.32 30.1171C147.77 29.5676 147.083 29.2928 146.293 29.2928C145.503 29.2928 144.816 29.5676 144.232 30.1171C143.683 30.6667 143.408 31.4223 143.408 32.384C143.408 33.3457 143.683 34.1357 144.232 34.6853C144.782 35.2348 145.469 35.5096 146.293 35.5096C147.117 35.5096 147.77 35.2348 148.32 34.6853C148.903 34.1701 149.178 33.3801 149.178 32.4184Z" fill="white"/>
<path d="M38.3064 32.5559C38.3064 42.0357 30.6127 49.7294 21.1329 49.7294C11.6532 49.7294 3.95947 42.0357 3.95947 32.5559C3.95947 23.0762 11.6532 15.3824 21.1329 15.3824C30.6127 15.3824 38.3064 23.0762 38.3064 32.5559Z" fill="white"/>
<path d="M12.4427 33.1395L12.5114 33.0365L16.9765 26.064C17.0452 25.961 17.1826 25.961 17.2513 26.0984C18.0069 27.7814 18.6251 29.8422 18.3504 31.1474C18.213 31.6969 17.8695 32.4182 17.4573 33.0708C17.423 33.1739 17.3543 33.2769 17.2856 33.3456C17.2513 33.3799 17.2169 33.4143 17.1482 33.4143H12.5457C12.4427 33.3799 12.374 33.2426 12.4427 33.1395Z" fill="white"/>
<path d="M32.3302 34.4451V35.5442C32.3302 35.6129 32.2959 35.6473 32.2272 35.6816C31.8837 35.819 30.6816 36.3685 30.2007 37.0555C28.9299 38.8072 27.9682 41.3145 25.8387 41.3145H16.8741C13.7142 41.3145 11.1382 38.7385 11.1382 35.5442V35.4412C11.1382 35.3725 11.2069 35.3038 11.2756 35.3038H16.3246C16.4276 35.3038 16.4963 35.4068 16.4963 35.4755C16.462 35.7846 16.5307 36.1281 16.668 36.4372C16.9772 37.0555 17.5954 37.3989 18.248 37.3989H20.721V35.4755H18.2823C18.145 35.4755 18.0763 35.3381 18.145 35.2351C18.1793 35.2007 18.2136 35.1664 18.248 35.0977C18.4884 34.7542 18.7975 34.2734 19.141 33.6895C19.3814 33.3117 19.5875 32.8652 19.7593 32.453C19.7936 32.3843 19.828 32.3156 19.8623 32.2126C19.8966 32.0752 19.9653 31.9378 19.9997 31.8347C20.034 31.7317 20.0684 31.6287 20.1027 31.5256C20.1714 31.1822 20.2058 30.8043 20.2058 30.3922C20.2058 30.2548 20.2058 30.0831 20.1714 29.9113C20.1714 29.7396 20.1371 29.5678 20.1371 29.3961C20.1371 29.2587 20.1027 29.087 20.0684 28.9496C20.034 28.7092 19.9997 28.5031 19.931 28.2627L19.8966 28.194C19.8623 28.0566 19.828 27.8848 19.7593 27.7475C19.6219 27.2666 19.4501 26.7857 19.2784 26.3736C19.2097 26.2018 19.141 26.0301 19.0723 25.8584C18.9693 25.618 18.8662 25.3775 18.7632 25.1714C18.7289 25.0684 18.6602 24.9997 18.6258 24.8967C18.5915 24.7936 18.5228 24.6906 18.4884 24.5875L18.3854 24.3815L18.0763 23.8319C18.0419 23.7632 18.1106 23.6602 18.1793 23.6945L20.0684 24.2097L20.3088 24.2784L20.5836 24.3471L20.6866 24.3815V23.248C20.6866 22.6985 21.1331 22.252 21.6483 22.252C21.9231 22.252 22.1635 22.355 22.3353 22.5267C22.507 22.6985 22.6101 22.9389 22.6101 23.2137V24.8623L22.8161 24.931C22.8161 24.931 22.8505 24.931 22.8505 24.9654C22.8848 24.9997 22.9535 25.0684 23.0566 25.1371C23.1253 25.2058 23.194 25.2745 23.297 25.3432C23.4687 25.4806 23.7092 25.6866 23.9496 25.8927C24.0183 25.9614 24.087 25.9958 24.1213 26.0645C24.4304 26.3392 24.7739 26.6827 25.1174 27.0605C25.2204 27.1636 25.2891 27.2666 25.3922 27.3696C25.4952 27.4727 25.5639 27.6101 25.6669 27.7131C25.77 27.8505 25.9074 28.0222 26.0104 28.1596C26.0447 28.2283 26.1134 28.297 26.1478 28.4001C26.2852 28.6061 26.3882 28.8122 26.5256 29.0183C26.5599 29.1213 26.6286 29.2244 26.663 29.3274C26.8004 29.6022 26.9034 29.877 26.9378 30.1861C26.9721 30.2548 26.9721 30.3235 26.9721 30.3578C27.0065 30.4265 27.0065 30.5296 27.0065 30.6326C27.0408 30.9417 27.0065 31.2165 26.9721 31.5256C26.9378 31.663 26.9034 31.766 26.8691 31.9034C26.8347 32.0065 26.8004 32.1439 26.7317 32.2813C26.6286 32.5217 26.4913 32.7621 26.3539 33.0025C26.3195 33.0712 26.2508 33.1743 26.1821 33.2773C26.1134 33.3804 26.0447 33.4491 26.0104 33.5521C25.9417 33.6551 25.8387 33.7582 25.77 33.8612C25.7013 33.9643 25.6326 34.0673 25.5295 34.1703C25.4265 34.3077 25.2891 34.4451 25.1861 34.5825C25.1174 34.6512 25.0487 34.7542 24.9456 34.8229C24.877 34.8916 24.8083 34.9947 24.7052 35.0634C24.6022 35.1664 24.4991 35.2694 24.3961 35.3381L24.19 35.5099C24.1557 35.5442 24.1213 35.5442 24.087 35.5442H22.5757V37.4676H24.4648C24.877 37.4676 25.2891 37.3303 25.5982 37.0555C25.7013 36.9524 26.1821 36.5403 26.766 35.922C26.7889 35.8991 26.8118 35.8877 26.8347 35.8877L32.0555 34.3764C32.2615 34.2734 32.3302 34.3421 32.3302 34.4451Z" fill="#979797"/>
</svg>
