<svg width="61" height="51" viewBox="0 0 61 51" fill="none" xmlns="http://www.w3.org/2000/svg">
<path d="M0.546875 33.5829C0.546875 32.8109 0.546875 31.9616 0.546875 31.0352C1.4733 20.2269 6.64584 9.88186 16.0645 0L20.9282 3.47409C14.5976 9.95906 11.3552 15.3632 11.2008 19.6865C11.3552 21.8482 13.208 23.3922 16.7593 24.3186C17.3769 24.473 18.0717 24.7047 18.8438 25.0135C24.5567 27.0207 27.4132 30.958 27.4132 36.8254C27.4132 38.6782 27.0272 40.6083 26.2552 42.6155C23.9391 47.7109 20.079 50.2585 14.6749 50.2585C13.1308 50.2585 11.5868 50.0269 10.0427 49.5637C3.71216 47.5565 0.546875 42.2295 0.546875 33.5829ZM33.435 33.5829C33.435 32.8109 33.435 31.9616 33.435 31.0352C34.3614 20.2269 39.5339 9.88186 48.9526 0L53.8163 3.47409C47.6401 9.80466 44.4748 15.2088 44.3204 19.6865C44.4748 21.8482 46.2505 23.3922 49.6474 24.3186C50.265 24.473 50.9598 24.7047 51.7318 25.0135C57.4448 27.0207 60.3013 30.958 60.3013 36.8254C60.3013 38.6782 59.9153 40.6083 59.1432 42.6155C56.8272 47.7109 52.9671 50.2585 47.5629 50.2585C46.0189 50.2585 44.4748 50.0269 42.9308 49.5637C36.6002 47.5565 33.435 42.2295 33.435 33.5829Z" fill="#04FFB4"/>
</svg>
