<svg width="102" height="102" viewBox="0 0 102 102" fill="none" xmlns="http://www.w3.org/2000/svg">
<circle cx="51" cy="51" r="51" fill="#363471"/>
<path d="M33.8364 72.0312C33.6311 72.0312 33.424 71.955 33.2634 71.801C32.9338 71.4847 32.9222 70.9613 33.2369 70.63L43.5354 59.8661C43.8534 59.5365 44.3785 59.5232 44.7064 59.8396C45.036 60.1559 45.0476 60.6793 44.7329 61.0105L34.4343 71.7745C34.272 71.9451 34.0551 72.0312 33.8364 72.0312Z" fill="#04FFB4"/>
<path d="M65.4062 43.875C62.6668 43.875 60.4375 41.6457 60.4375 38.9062C60.4375 36.1668 62.6668 33.9375 65.4062 33.9375C68.1457 33.9375 70.375 36.1668 70.375 38.9062C70.375 41.6457 68.1457 43.875 65.4062 43.875ZM65.4062 35.5938C63.5794 35.5938 62.0938 37.0794 62.0938 38.9062C62.0938 40.7331 63.5794 42.2188 65.4062 42.2188C67.2331 42.2188 68.7188 40.7331 68.7188 38.9062C68.7188 37.0794 67.2331 35.5938 65.4062 35.5938Z" fill="#04FFB4"/>
<path d="M61.2656 75.3438H30.625C30.1679 75.3438 29.7969 74.9727 29.7969 74.5156C29.7969 74.0585 30.1679 73.6875 30.625 73.6875H61.2656C61.7227 73.6875 62.0938 74.0585 62.0938 74.5156C62.0938 74.9727 61.7227 75.3438 61.2656 75.3438Z" fill="#04FFB4"/>
<path d="M61.2657 75.3437H31.3423C30.0371 75.3437 28.886 74.6084 28.3378 73.4258C27.7896 72.2432 27.9701 70.8884 28.8132 69.893L40.7597 55.7619C41.0562 55.4124 41.5779 55.371 41.9274 55.6642C42.2752 55.959 42.3199 56.4824 42.0251 56.8318L30.0785 70.963C29.6512 71.4681 29.5618 72.129 29.84 72.7285C30.1166 73.3297 30.6798 73.6875 31.3423 73.6875H61.2657C61.7229 73.6875 62.0939 74.0585 62.0939 74.5156C62.0939 74.9727 61.7229 75.3437 61.2657 75.3437Z" fill="#04FFB4"/>
<path d="M50.4291 69.3018C50.1708 69.3018 49.914 69.1809 49.7534 68.9523C49.49 68.578 49.5778 68.0613 49.9505 67.7979L57.4997 62.4549C57.8773 62.1518 58.1092 61.6383 58.0843 61.1083C58.0595 60.5783 57.7763 60.0881 57.3324 59.7999L52.0241 55.8878C51.8336 55.7471 51.7127 55.5317 51.6912 55.2966C51.6697 55.0614 51.7508 54.8278 51.9131 54.6556L58.4918 47.6579C58.8048 47.3234 59.3298 47.3085 59.6627 47.6215C59.9956 47.9345 60.0122 48.4579 59.6975 48.7925L53.7582 55.1094L58.2764 58.4401C59.1261 58.99 59.6876 59.9688 59.7389 61.0288C59.7903 62.0888 59.3265 63.1174 58.4984 63.7799L50.9111 69.1527C50.762 69.2521 50.5964 69.3018 50.4291 69.3018Z" fill="#04FFB4"/>
<path d="M48.153 72.0313C47.9162 72.0313 47.6826 71.9302 47.5187 71.7348L46.8578 70.9448C45.4749 69.2985 45.5726 66.9035 47.0847 65.3731L50.8759 61.5389L45.5361 58.1204C44.3801 57.3801 43.5751 56.1826 43.3284 54.8328C43.0816 53.4829 43.4079 52.0768 44.226 50.9754L51.3347 41.394L47.7721 37.9125L41.5446 40.5956C40.9284 40.8606 40.2527 40.8689 39.6382 40.6238C39.0238 40.3787 38.5418 39.9066 38.2801 39.2971C37.7402 38.0434 38.3199 36.5776 39.5769 36.0343L47.3348 32.692C48.2673 32.2895 49.3323 32.4883 50.0544 33.1955L54.3573 36.2265C55.4554 37.0049 56.4624 37.9092 57.3502 38.9145L65.8749 48.5738L71.8026 45.3275C73.01 44.6717 74.5205 45.1139 75.1747 46.3147C75.8306 47.5171 75.3884 49.0293 74.1876 49.6868L66.6036 53.839C66.39 53.955 66.1631 54.0394 65.9295 54.0891C65.108 54.263 64.2716 54.0179 63.6754 53.4365L60.6908 51.0499C60.3331 50.7634 60.2768 50.2433 60.5616 49.8855C60.8515 49.5278 61.3715 49.4731 61.726 49.7564L64.7718 52.1977C65.0319 52.4461 65.3134 52.5273 65.5834 52.4693C65.6645 52.4527 65.7374 52.4246 65.8103 52.3865L73.3926 48.2359C73.7934 48.0173 73.9408 47.5121 73.7222 47.1113C73.5019 46.7105 72.9968 46.5598 72.5959 46.7834L66.0885 50.346C65.7474 50.5331 65.3267 50.4586 65.0699 50.1688L56.1063 40.0126C55.3047 39.1034 54.3938 38.2852 53.3984 37.5813L48.996 34.4675C48.6565 34.1495 48.3004 34.0833 47.9924 34.2158L40.2328 37.5548C39.8138 37.7353 39.62 38.2222 39.8005 38.6413C39.8883 38.8466 40.0473 39.004 40.251 39.0851C40.4548 39.1663 40.685 39.163 40.8887 39.0752L47.623 36.1735C47.9344 36.0376 48.2888 36.1072 48.5306 36.3407L53.0091 40.7132C53.3056 41.0031 53.342 41.4668 53.0953 41.7997L45.5544 51.9625C45.0012 52.7078 44.7892 53.6204 44.9564 54.5346C45.1254 55.4472 45.6471 56.2257 46.4289 56.7275L52.6299 60.6975C52.8402 60.8317 52.9793 61.0553 53.0075 61.3037C53.0356 61.5522 52.9495 61.799 52.7723 61.9778L48.2607 66.5408C47.353 67.4584 47.2951 68.896 48.1249 69.8848L48.7857 70.6748C49.0805 71.0259 49.0341 71.5476 48.683 71.8424C48.5306 71.9683 48.3402 72.0313 48.153 72.0313Z" fill="#04FFB4"/>
<path d="M29.7969 35.5938H26.4844C26.0273 35.5938 25.6562 35.2227 25.6562 34.7656C25.6562 34.3085 26.0273 33.9375 26.4844 33.9375H29.7969C30.254 33.9375 30.625 34.3085 30.625 34.7656C30.625 35.2227 30.254 35.5938 29.7969 35.5938Z" fill="#04FFB4"/>
<path d="M39.7344 52.1562H26.4844C26.0273 52.1562 25.6562 51.7852 25.6562 51.3281C25.6562 50.871 26.0273 50.5 26.4844 50.5H39.7344C40.1915 50.5 40.5625 50.871 40.5625 51.3281C40.5625 51.7852 40.1915 52.1562 39.7344 52.1562Z" fill="#04FFB4"/>
<path d="M43.0469 32.2812H31.4531C30.996 32.2812 30.625 31.9102 30.625 31.4531C30.625 30.996 30.996 30.625 31.4531 30.625H43.0469C43.504 30.625 43.875 30.996 43.875 31.4531C43.875 31.9102 43.504 32.2812 43.0469 32.2812Z" fill="#04FFB4"/>
<path d="M64.5781 75.3438C65.0355 75.3438 65.4062 74.973 65.4062 74.5156C65.4062 74.0583 65.0355 73.6875 64.5781 73.6875C64.1208 73.6875 63.75 74.0583 63.75 74.5156C63.75 74.973 64.1208 75.3438 64.5781 75.3438Z" fill="#04FFB4"/>
</svg>
