<svg width="102" height="102" viewBox="0 0 102 102" fill="none" xmlns="http://www.w3.org/2000/svg">
<circle cx="51" cy="51" r="51" fill="#363471"/>
<g clip-path="url(#clip0_6075_99)">
<path d="M73.3691 48.6198C73.2866 45.9634 72.508 43.4456 71.1811 41.5325C69.7037 39.4047 67.5982 38.0595 65.066 37.6172C63.9668 35.8597 62.2081 34.538 60.0738 34.0212C56.2029 33.0764 53.1683 31.0624 50.7945 27.8616L44.5277 19.4225C44.1822 18.9579 43.5266 18.8611 43.0633 19.2066C42.5988 19.5507 42.502 20.2076 42.8474 20.6709L49.1143 29.1087C51.7917 32.7178 55.2149 34.9895 59.5804 36.0547C62.3075 36.7155 64.2115 39.1378 64.2115 41.9447C64.2115 44.643 62.4044 47.0443 59.8173 47.7836C59.5176 47.8687 59.2716 48.0846 59.1473 48.3699C58.1815 50.5709 56.0001 51.9934 53.591 51.9934C50.2344 51.9934 47.5047 49.2676 47.5047 45.9163C47.5047 45.4857 47.5544 45.033 47.65 44.5828C48.3331 41.5102 47.7036 38.5554 45.8284 36.0364L33.5106 19.4238C33.1665 18.9592 32.5108 18.8624 32.0463 19.2066C31.5817 19.5507 31.4849 20.2063 31.8291 20.6709L44.1469 37.2848C45.6701 39.3314 46.1595 41.6332 45.6033 44.1379C45.4751 44.7412 45.4097 45.3392 45.4097 45.9163C45.4097 48.7978 46.9119 51.3325 49.1732 52.7877C48.4194 54.2455 48.0255 55.8563 48.0255 57.5065C48.0255 57.6413 48.0308 57.7761 48.036 57.9095C46.6162 59.1278 45.7826 60.9049 45.7826 62.7762V84.9529C45.7826 85.5313 46.2511 85.9998 46.8295 85.9998C47.4079 85.9998 47.8764 85.5313 47.8764 84.9529V62.7762C47.8764 61.995 48.0936 61.236 48.4875 60.5764C48.99 62.1939 49.8916 63.666 51.1452 64.8726C52.5088 66.1955 53.6158 67.6389 54.4625 69.1935C52.5206 70.5309 51.1518 73.2449 51.1518 75.9904V84.9529C51.1518 85.5313 51.6202 85.9998 52.1986 85.9998C52.777 85.9998 53.2455 85.5313 53.2455 84.9529V75.9891C53.2455 74.0707 54.1223 72.1392 55.3589 71.1263C56.131 73.1206 56.5209 75.2759 56.5209 77.5803V84.9529C56.5209 85.5313 56.9894 85.9998 57.5678 85.9998C58.1462 85.9998 58.6147 85.5313 58.6147 84.9529V77.5816C58.6147 72.0214 56.5916 67.2398 52.6004 63.3677C51.0013 61.8275 50.1206 59.7468 50.1206 57.5078C50.1206 56.1704 50.4464 54.8657 51.068 53.6893C51.8636 53.9471 52.7116 54.0884 53.5923 54.0884C56.6452 54.0884 59.4247 52.3886 60.8223 49.7151C64.1945 50.7908 66.5173 53.9393 66.5173 57.5078C66.5173 59.9352 66.2634 62.7461 65.9938 65.7218C65.6876 69.1019 65.3722 72.5985 65.3722 76.0362V84.9529C65.3722 85.5313 65.8407 85.9998 66.4191 85.9998C66.9975 85.9998 67.466 85.5313 67.466 84.9529V76.0362C67.466 72.6927 67.7774 69.2446 68.0797 65.9103C68.3257 63.1976 68.5574 60.6209 68.6032 58.2995C70.0321 57.7669 71.2557 56.5944 72.1037 54.9155C72.9909 53.1528 73.441 50.9164 73.3691 48.6198ZM68.4985 56.016C68.0208 52.7615 66.0017 49.935 63.1162 48.4157C65.0752 46.899 66.304 44.5226 66.304 41.9447C66.304 41.2956 66.2268 40.6636 66.0828 40.0551C69.722 41.433 71.1732 45.3811 71.2766 48.6853C71.38 52.0143 70.2376 54.888 68.4985 56.016Z" fill="#04FFB4"/>
</g>
<defs>
<clipPath id="clip0_6075_99">
<rect width="67" height="67" fill="white" transform="translate(19 19)"/>
</clipPath>
</defs>
</svg>
