<svg width="102" height="102" viewBox="0 0 102 102" fill="none" xmlns="http://www.w3.org/2000/svg">
<circle cx="51" cy="51" r="51" fill="#363471"/>
<path fill-rule="evenodd" clip-rule="evenodd" d="M64.2812 49.5156C72.4304 49.5156 79.0469 56.1321 79.0469 64.2812C79.0469 72.4304 72.4304 79.0469 64.2812 79.0469C56.1321 79.0469 49.5156 72.4304 49.5156 64.2812C49.5156 56.1321 56.1321 49.5156 64.2812 49.5156ZM64.2812 51.4844C57.2184 51.4844 51.4844 57.2184 51.4844 64.2812C51.4844 71.3441 57.2184 77.0781 64.2812 77.0781C71.3441 77.0781 77.0781 71.3441 77.0781 64.2812C77.0781 57.2184 71.3441 51.4844 64.2812 51.4844ZM60.3438 68.2188H54.9297C54.3858 68.2188 53.9453 67.7782 53.9453 67.2344V61.3281C53.9453 60.7843 54.3858 60.3438 54.9297 60.3438H60.3438V54.9297C60.3438 54.3858 60.7843 53.9453 61.3281 53.9453H67.2344C67.7782 53.9453 68.2188 54.3858 68.2188 54.9297V60.3438H73.6328C74.1767 60.3438 74.6172 60.7843 74.6172 61.3281V67.2344C74.6172 67.7782 74.1767 68.2188 73.6328 68.2188H68.2188V73.6328C68.2188 74.1767 67.7782 74.6172 67.2344 74.6172H61.3281C60.7843 74.6172 60.3438 74.1767 60.3438 73.6328V68.2188ZM62.3125 67.2344V72.6484H66.25V67.2344C66.25 66.6905 66.6905 66.25 67.2344 66.25H72.6484V62.3125H67.2344C66.6905 62.3125 66.25 61.872 66.25 61.3281V55.9141H62.3125V61.3281C62.3125 61.872 61.872 62.3125 61.3281 62.3125H55.9141V66.25H61.3281C61.872 66.25 62.3125 66.6905 62.3125 67.2344ZM49.584 56.2778C49.3754 55.8899 49.1632 55.5051 48.9467 55.1231L43.2373 58.3853L45.1332 67.8658C45.2956 68.6775 45.0854 69.5196 44.5603 70.1599C44.0356 70.8008 43.2511 71.1719 42.4227 71.1719C41.2257 71.1719 40.1774 70.3671 39.8692 69.2105L36.26 55.6754C36.1572 55.2905 36.2965 54.8819 36.6129 54.6398L44.6159 48.5199C42.9922 46.3494 41.24 44.2768 39.3844 42.2819L32.6001 44.5431C32.3462 44.6282 32.0681 44.6056 31.8308 44.4805L23.2678 39.9736C22.4596 39.5483 21.9531 38.7096 21.9531 37.7961V37.5141C21.9531 36.6813 22.3744 35.9047 23.0729 35.4509C23.7718 34.9971 24.6523 34.9272 25.4137 35.2653L31.7801 38.0949C33.5284 37.2533 40.3974 33.9463 43.3259 32.5386C44.0307 32.199 44.9506 32.2083 45.7597 32.3058C47.4775 32.5135 53.6347 33.7824 53.6347 33.7824C53.8297 33.8193 54.0088 33.9138 54.1491 34.054L60.5062 40.4106C61.4571 41.362 61.4571 42.9036 60.5062 43.855L60.4919 43.8688C59.605 44.7557 58.1865 44.8147 57.2287 44.0046L52.0396 39.6138L51.5676 39.535C53.4197 42.4173 55.0793 45.6441 56.549 49.4393C55.9559 49.7489 55.3835 50.0935 54.8352 50.4695C52.2793 43.7684 49.1243 38.8883 45.3429 34.5477C45.0515 34.2175 44.5765 34.1215 44.1798 34.3124C40.8098 35.9327 32.2241 40.0666 32.2241 40.0666C31.9637 40.1921 31.661 40.1965 31.3972 40.0794L24.6139 37.0643C24.4618 36.9968 24.2856 37.0106 24.1458 37.1017C24.006 37.1922 23.9219 37.3478 23.9219 37.5141V37.7961C23.9219 37.9788 24.0233 38.1466 24.1847 38.2317L32.3762 42.5428L39.3608 40.2148C39.724 40.0932 40.1252 40.1941 40.388 40.4732C44.3841 44.7094 47.9308 49.2863 50.7899 54.3839C50.3474 54.9858 49.9443 55.6183 49.584 56.2778ZM47.9475 53.4265C47.2565 52.2965 46.53 51.1935 45.772 50.1146L38.3316 55.8043L41.7715 68.7031C41.8498 68.9979 42.1171 69.2031 42.4222 69.2031C42.6604 69.2031 42.8868 69.0963 43.0379 68.9122C43.189 68.7277 43.2496 68.4855 43.2028 68.2517L41.1676 58.0757C41.0845 57.6603 41.2764 57.2385 41.6446 57.0284L47.9475 53.4265ZM48.0843 34.7451C48.7542 35.5665 49.4039 36.4101 50.0334 37.2838L52.6307 37.7164C52.8054 37.7455 52.9693 37.8217 53.1047 37.9359L58.5005 42.502C58.6762 42.6506 58.9371 42.6398 59.1 42.4769L59.1138 42.4626C59.2959 42.2805 59.2959 41.9852 59.1138 41.803L52.9723 35.6615L48.0843 34.7451ZM39.1797 21.9531C42.1678 21.9531 44.5938 24.3791 44.5938 27.3672C44.5938 30.3553 42.1678 32.7812 39.1797 32.7812C36.1916 32.7812 33.7656 30.3553 33.7656 27.3672C33.7656 24.3791 36.1916 21.9531 39.1797 21.9531ZM39.1797 23.9219C37.2784 23.9219 35.7344 25.4659 35.7344 27.3672C35.7344 29.2685 37.2784 30.8125 39.1797 30.8125C41.081 30.8125 42.625 29.2685 42.625 27.3672C42.625 25.4659 41.081 23.9219 39.1797 23.9219ZM24.7025 53.6569C24.3181 53.273 24.3181 52.6489 24.7025 52.265C25.0864 51.8806 25.7105 51.8806 26.0944 52.265L28.9058 55.0764L29.3866 53.6342C29.4836 53.3429 29.7105 53.114 30.0009 53.0141C30.2913 52.9147 30.6112 52.956 30.8661 53.1263L33.8193 55.0951C34.2716 55.3963 34.3937 56.0081 34.0924 56.4599C33.7912 56.9122 33.1794 57.0343 32.7276 56.7331L30.8465 55.4795L30.2696 57.2095C30.1618 57.5334 29.8941 57.778 29.5623 57.8562C29.2301 57.935 28.8812 57.8356 28.64 57.5944L24.7025 53.6569ZM36.0863 52.9467C36.3659 53.4128 36.2147 54.0177 35.7486 54.2972C35.2825 54.5768 34.6776 54.4257 34.3981 53.9596L32.2891 50.4444L31.6566 51.4986C31.4878 51.7797 31.1905 51.9584 30.8632 51.9751C30.5359 51.9923 30.2219 51.8451 30.025 51.5828L27.0719 47.6453C26.746 47.2107 26.8341 46.593 27.2687 46.2672C27.7034 45.9414 28.321 46.0295 28.6469 46.4641L30.7214 49.2302L31.445 48.0248C31.6226 47.7285 31.9431 47.5469 32.2891 47.5469C32.6351 47.5469 32.9555 47.7285 33.1332 48.0248L36.0863 52.9467ZM34.2042 57.556C34.656 57.2548 35.2678 57.3768 35.569 57.8292C35.8702 58.281 35.7482 58.8928 35.2958 59.194L33.8193 60.1784C33.3674 60.4796 32.7557 60.3575 32.4544 59.9052C32.1532 59.4534 32.2753 58.8416 32.7276 58.5404L34.2042 57.556ZM38.1658 51.2457C38.2977 51.7728 37.9768 52.3078 37.4496 52.4392C36.9225 52.5711 36.3875 52.2502 36.2561 51.7231L35.7639 49.7543C35.632 49.2272 35.9529 48.6922 36.48 48.5608C37.0072 48.4289 37.5422 48.7498 37.6736 49.2769L38.1658 51.2457ZM34.8007 60.5249C34.9725 60.0091 35.5301 59.7305 36.0454 59.9023C36.5612 60.074 36.8398 60.6317 36.6681 61.147L36.1759 62.6236C36.0041 63.1394 35.4464 63.418 34.9311 63.2462C34.4153 63.0744 34.1367 62.5168 34.3085 62.0014L34.8007 60.5249Z" fill="#04FFB4"/>
</svg>
