<svg width="102" height="102" viewBox="0 0 102 102" fill="none" xmlns="http://www.w3.org/2000/svg">
<circle cx="51" cy="51" r="51" fill="#363471"/>
<g clip-path="url(#clip0_6075_102)">
<path d="M70.0633 31.9903L67.8412 30.0337L70.0633 28.0774C70.4089 27.7727 70.5271 27.2978 70.3648 26.867C70.2018 26.4358 69.7991 26.1573 69.3385 26.1573H60.1431V25.7621C60.1431 25.3412 59.802 25 59.381 25C58.9601 25 58.6189 25.3412 58.6189 25.7621V36.0405L52.3597 39.4393C52.3252 39.164 52.2427 38.8934 52.1122 38.6387L51.2303 36.9169C50.6249 35.7347 49.1705 35.2661 47.989 35.8711L47.307 36.2203C46.7341 36.5138 46.31 37.0121 46.1125 37.6247C45.9149 38.2368 45.9677 38.8894 46.2612 39.4619L47.1432 41.1841C47.3491 41.586 47.6534 41.9042 48.0112 42.1271C47.5431 42.7575 47.3209 43.5327 47.0924 44.3381L46.9281 44.9197C46.8135 45.3248 47.0491 45.7461 47.4542 45.8603C47.5232 45.8802 47.5931 45.8893 47.6617 45.8893C47.9942 45.8893 48.2996 45.6703 48.3948 45.3343L48.5591 44.7539C48.8931 43.576 49.0982 42.9452 49.7513 42.5905L50.922 41.9546L51.0664 41.8808C51.1144 41.8562 51.1592 41.8284 51.2049 41.801L59.5488 37.27C59.4961 38.313 58.9347 39.2985 58.0103 39.8598L52.5843 43.1566C52.5779 43.1602 52.5716 43.1638 52.5656 43.1677L50.8768 44.1937C50.5173 44.4123 50.4027 44.8812 50.6213 45.241C50.8272 45.5803 51.2556 45.7009 51.6052 45.5307L50.3237 49.4043L49.3871 49.7883L46.8401 50.8321L47.574 48.2375C47.6883 47.8325 47.453 47.4111 47.048 47.2965C46.6425 47.1814 46.2216 47.4175 46.1069 47.8226L44.9473 51.9235C44.9322 51.9763 44.9223 52.0342 44.9199 52.0894L44.6164 57.6642C44.6073 57.8768 44.6525 58.2787 44.5541 58.4862L41.1835 65.5773H38.7341C37.2992 65.5773 36.132 66.7445 36.132 68.1791V70.3789C35.8035 70.2285 35.4389 70.1444 35.0545 70.1444H28.8342C27.3996 70.1444 26.2324 71.3112 26.2324 72.7462V75.4757H24.4027C23.9818 75.4757 23.6406 75.8169 23.6406 76.2378C23.6406 76.6587 23.9818 76.9999 24.4027 76.9999H69.3377C69.7586 76.9999 70.0998 76.6587 70.0998 76.2378C70.0998 75.8169 69.7586 75.4757 69.3377 75.4757H67.3557V55.8317C67.3557 54.3971 66.1885 53.23 64.7539 53.23H60.1431V39.9344C60.9882 38.7891 61.3012 37.2878 60.9088 35.8612C60.8473 35.6371 60.6867 35.453 60.4724 35.3621C60.3673 35.3173 60.2546 35.2975 60.1431 35.3018V33.9105H69.3381C69.7991 33.9105 70.2018 33.632 70.3644 33.2012C70.5271 32.7703 70.4089 32.295 70.0633 31.9903ZM47.5633 38.0928C47.6359 37.8679 47.7914 37.6846 48.0017 37.5771L48.6837 37.2279C48.8122 37.1621 48.9495 37.1307 49.0852 37.1307C49.4065 37.1307 49.7171 37.3065 49.8735 37.6116L50.7558 39.3338C50.9617 39.7361 50.8284 40.2236 50.4622 40.47L50.2138 40.6045L49.6898 40.8731C49.2561 41.0952 48.7221 40.9231 48.5 40.489L47.6177 38.7672C47.5101 38.557 47.4907 38.3174 47.5633 38.0928ZM46.0319 65.8118C45.7729 65.6936 45.4912 65.6162 45.1952 65.5888L46.0319 64.4776V65.8118ZM49.6505 59.6708C50.0171 59.2317 50.1182 58.7187 50.2 58.3053C50.2206 58.2069 50.5967 56.1526 50.5967 56.1526C50.5967 56.1526 50.9526 56.3744 50.9898 56.3903C51.0156 56.4018 51.0339 56.4272 51.0367 56.4569L51.4512 60.6714H48.8971L49.6505 59.6708ZM54.1573 55.4643L53.5138 60.6678H52.9826L52.5537 56.3078C52.499 55.7492 52.157 55.2616 51.6559 55.0192L50.8895 54.5332L51.4001 51.7033C51.4001 51.7033 53.5511 54.2587 53.6011 54.3237C54.0462 54.9026 54.1986 55.1342 54.1573 55.4643ZM45.9252 59.1527C46.0791 58.6893 46.1506 58.2176 46.1387 57.738L46.4156 52.6535L49.9405 51.209L49.2998 54.7582C49.2978 54.7677 49.2958 54.7776 49.2946 54.7871L48.7646 57.7217C48.6956 58.0256 48.6353 58.4866 48.4456 58.7369L43.2957 65.5773H42.8712L45.9252 59.1527ZM27.7567 72.7458C27.7567 72.1519 28.2399 71.6687 28.8342 71.6687H35.0545C35.6488 71.6687 36.1324 72.1519 36.1324 72.7458V75.4757H27.7567V72.7458ZM37.6562 72.7458V68.1791C37.6562 67.5848 38.1398 67.1015 38.7341 67.1015H44.9544C45.5487 67.1015 46.0319 67.5848 46.0319 68.1791V75.4757H37.6566V72.7458H37.6562ZM65.8314 55.8317V75.4757H57.4561V70.9062C57.4561 70.4852 57.1149 70.144 56.694 70.144C56.2727 70.144 55.9315 70.4852 55.9315 70.9062V75.4757H47.5562V63.2727C47.5562 62.6788 48.0394 62.1956 48.6337 62.1956H54.854C55.4483 62.1956 55.9315 62.6788 55.9315 63.2727V67.0932C55.9315 67.5141 56.2727 67.8553 56.6936 67.8553C57.1149 67.8553 57.4557 67.5141 57.4557 67.0932V55.8317C57.4557 55.2374 57.9393 54.7542 58.5336 54.7542H59.3731C59.3755 54.7542 59.3783 54.7546 59.381 54.7546C59.3834 54.7546 59.3862 54.7542 59.3886 54.7542H64.7535C65.3478 54.7542 65.8314 55.2378 65.8314 55.8317ZM58.5336 53.23C57.0991 53.23 55.9319 54.3971 55.9319 55.8317V60.9058C55.6589 60.7813 55.3614 60.7023 55.0484 60.6793L55.67 55.652C55.7922 54.6721 55.2924 54.0226 54.8091 53.3942C54.758 53.3276 51.7956 49.8102 51.7956 49.8102L53.613 44.3155L58.6189 41.2742V53.23H58.5336ZM60.1431 32.3859V27.6819H68.2058L66.4694 29.2109C66.2329 29.4192 66.0972 29.7191 66.0972 30.0341C66.0972 30.3491 66.2329 30.649 66.4694 30.8573L68.2058 32.3863H60.1431V32.3859Z" fill="#04FFB4"/>
</g>
<defs>
<clipPath id="clip0_6075_102">
<rect width="52" height="52" fill="white" transform="translate(21 25)"/>
</clipPath>
</defs>
</svg>
