<svg width="102" height="102" viewBox="0 0 102 102" fill="none" xmlns="http://www.w3.org/2000/svg">
<circle cx="51" cy="51" r="51" fill="#363471"/>
<mask id="mask0_6075_104" style="mask-type:luminance" maskUnits="userSpaceOnUse" x="21" y="17" width="60" height="60">
<path d="M21 17H81V77H21V17Z" fill="white"/>
</mask>
<g mask="url(#mask0_6075_104)">
<path fill-rule="evenodd" clip-rule="evenodd" d="M71.5328 48.6438C71.9816 48.4587 72.1953 47.9449 72.0102 47.4962C71.1334 45.3706 69.9434 43.4079 68.4966 41.6649C68.1866 41.2914 67.6325 41.2399 67.259 41.55C66.8855 41.86 66.834 42.4141 67.1441 42.7876C68.4793 44.3961 69.5768 46.2066 70.3852 48.1665C70.5703 48.6152 71.0841 48.8289 71.5328 48.6438Z" fill="#04FFB4"/>
<path fill-rule="evenodd" clip-rule="evenodd" d="M21 56.1577C21 56.6431 21.3935 57.0366 21.8789 57.0366H29.1598C29.6452 57.0366 30.0387 56.6431 30.0387 56.1577C30.0387 50.3707 32.3839 45.1309 36.1773 41.3374C36.1802 41.3346 36.183 41.3317 36.1858 41.3288C39.9786 37.5386 45.2156 35.1964 51 35.1964C56.0868 35.1964 60.7484 37.0066 64.3781 40.0198C64.7515 40.3298 65.3057 40.2784 65.6157 39.9049C65.9258 39.5314 65.8743 38.9773 65.5008 38.6673C61.5672 35.4018 56.5116 33.4386 51 33.4386C44.7271 33.4386 39.0452 35.9824 34.9355 40.0932C34.9326 40.0961 34.9297 40.099 34.9269 40.1019C31.0144 44.0181 28.5229 49.3599 28.2976 55.2788H22.7712C22.9985 47.8424 26.1003 41.1309 31.0034 36.2142C31.0126 36.2057 31.0216 36.1971 31.0305 36.1882C33.0834 34.1352 35.4511 32.3974 38.0524 31.053C38.4836 30.8301 38.6525 30.2999 38.4296 29.8686C38.2068 29.4374 37.6765 29.2685 37.2453 29.4914C34.4931 30.9138 31.988 32.7502 29.8143 34.9184C29.8048 34.9272 29.7954 34.9361 29.7863 34.9453C24.3595 40.3731 21 47.8738 21 56.1577Z" fill="#04FFB4"/>
<path fill-rule="evenodd" clip-rule="evenodd" d="M71.5234 35.4826C71.855 35.1281 71.8363 34.5719 71.4818 34.2404C66.1211 29.2272 58.9173 26.1588 50.9995 26.1588C47.4444 26.1588 44.0311 26.7779 40.8633 27.9156C40.4065 28.0796 40.1691 28.583 40.3332 29.0398C40.4973 29.4967 41.0006 29.734 41.4575 29.5699C44.4373 28.4998 47.6498 27.9166 50.9995 27.9166C58.4543 27.9166 65.2333 30.8036 70.2812 35.5243C70.6357 35.8558 71.1919 35.8372 71.5234 35.4826Z" fill="#04FFB4"/>
<path fill-rule="evenodd" clip-rule="evenodd" d="M71.9617 56.1577C71.9617 56.6431 72.3552 57.0366 72.8406 57.0366H80.1215C80.6069 57.0366 81.0004 56.6431 81.0004 56.1577C81.0004 48.6108 78.0832 41.194 72.9209 35.6797C72.5892 35.3254 72.033 35.307 71.6786 35.6387C71.3243 35.9705 71.3059 36.5267 71.6377 36.881C76.2933 41.8542 79.012 48.4814 79.2286 55.2788H73.7029C73.6512 53.9193 73.4801 52.59 73.199 51.3006C73.0955 50.8264 72.6272 50.5258 72.153 50.6292C71.6787 50.7326 71.3781 51.2009 71.4815 51.6752C71.7963 53.1184 71.9617 54.6177 71.9617 56.1577Z" fill="#04FFB4"/>
<path fill-rule="evenodd" clip-rule="evenodd" d="M62.7344 49.0058C63.1227 49.297 63.6736 49.2184 63.9649 48.8301L77.1848 31.2052C77.4473 30.8552 77.4124 30.3654 77.103 30.0562C76.7936 29.7469 76.3038 29.7123 75.954 29.975L58.3395 43.2006C57.9513 43.4921 57.8729 44.043 58.1644 44.4312C58.4559 44.8194 59.0068 44.8978 59.395 44.6063L72.0792 35.0824L62.5587 47.7753C62.2674 48.1636 62.3461 48.7145 62.7344 49.0058Z" fill="#04FFB4"/>
<path fill-rule="evenodd" clip-rule="evenodd" d="M51 35.1963C51.4854 35.1963 51.8789 34.8028 51.8789 34.3174V27.0372C51.8789 26.5518 51.4854 26.1583 51 26.1583C50.5146 26.1583 50.1211 26.5518 50.1211 27.0372V34.3174C50.1211 34.8028 50.5146 35.1963 51 35.1963Z" fill="#04FFB4"/>
<path fill-rule="evenodd" clip-rule="evenodd" d="M36.1776 41.3358C36.5208 40.9926 36.5208 40.4361 36.1776 40.0929L31.0297 34.9449C30.6864 34.6017 30.13 34.6017 29.7867 34.9449C29.4435 35.2882 29.4435 35.8447 29.7867 36.1879L34.9347 41.3358C35.2779 41.6791 35.8344 41.6791 36.1776 41.3358Z" fill="#04FFB4"/>
<path fill-rule="evenodd" clip-rule="evenodd" d="M74.5681 33.1976C74.9033 32.8464 74.8902 32.2901 74.5391 31.955C68.4194 26.1152 60.1276 22.528 51 22.528C50.5146 22.528 50.1211 22.9215 50.1211 23.407C50.1211 23.8924 50.5146 24.2859 51 24.2859C59.6579 24.2859 67.5197 27.6864 73.3255 33.2267C73.6767 33.5618 74.233 33.5488 74.5681 33.1976Z" fill="#04FFB4"/>
<path fill-rule="evenodd" clip-rule="evenodd" d="M21 63.438C21 63.9234 21.3935 64.3169 21.8789 64.3169H29.1592C29.6446 64.3169 30.0381 63.9234 30.0381 63.438C30.0381 62.9526 29.6446 62.5591 29.1592 62.5591H21.8789C21.3935 62.5591 21 62.9526 21 63.438Z" fill="#04FFB4"/>
<path fill-rule="evenodd" clip-rule="evenodd" d="M71.9619 63.438C71.9619 63.9234 72.3554 64.3169 72.8408 64.3169H80.1211C80.6065 64.3169 81 63.9234 81 63.438C81 62.9526 80.6065 62.5591 80.1211 62.5591H72.8408C72.3554 62.5591 71.9619 62.9526 71.9619 63.438Z" fill="#04FFB4"/>
<path fill-rule="evenodd" clip-rule="evenodd" d="M76.4805 67.9575C76.9659 67.9575 77.3594 67.564 77.3594 67.0786V59.7983C77.3594 59.3129 76.9659 58.9194 76.4805 58.9194C75.9951 58.9194 75.6016 59.3129 75.6016 59.7983V67.0786C75.6016 67.564 75.9951 67.9575 76.4805 67.9575Z" fill="#04FFB4"/>
<path fill-rule="evenodd" clip-rule="evenodd" d="M52.0446 70.7072C52.1078 71.1884 52.5492 71.5273 53.0305 71.4641C60.5977 70.4699 66.4395 63.9978 66.4395 56.1575C66.4395 47.6306 59.5267 40.7192 51 40.7192C42.4733 40.7192 35.5605 47.6306 35.5605 56.1575C35.5605 63.9978 41.4036 70.4713 48.972 71.4641C49.4533 71.5272 49.8946 71.1883 49.9578 70.707C50.0209 70.2257 49.6819 69.7844 49.2006 69.7212C42.4957 68.8417 37.3184 63.1039 37.3184 56.1575C37.3184 48.6016 43.4439 42.4771 51 42.4771C58.5561 42.4771 64.6816 48.6016 64.6816 56.1575C64.6816 63.1039 59.5055 68.8405 52.8015 69.7213C52.3203 69.7845 51.9814 70.2259 52.0446 70.7072Z" fill="#04FFB4"/>
<path fill-rule="evenodd" clip-rule="evenodd" d="M40.9844 67.6045C41.4698 67.6045 41.8633 67.211 41.8633 66.7256V64.505C41.8633 63.7829 42.3227 63.1395 43.0068 62.9049C43.0068 62.9049 43.0069 62.9049 43.007 62.9049C43.0071 62.9048 43.0071 62.9048 43.0071 62.9048L47.8572 61.2456C48.3164 61.0884 48.5614 60.5888 48.4042 60.1295C48.2471 59.6702 47.7474 59.4253 47.2882 59.5824L42.4374 61.2419C41.0428 61.7197 40.1055 63.0311 40.1055 64.505V66.7256C40.1055 67.211 40.499 67.6045 40.9844 67.6045Z" fill="#04FFB4"/>
<path fill-rule="evenodd" clip-rule="evenodd" d="M61.0163 67.6045C61.5017 67.6045 61.8952 67.211 61.8952 66.7256V64.505C61.8952 63.0311 60.9578 61.7197 59.5632 61.2419L54.7125 59.5824C54.2532 59.4253 53.7535 59.6702 53.5964 60.1295C53.4393 60.5888 53.6842 61.0884 54.1435 61.2456L58.9935 62.9048C58.9935 62.9048 58.9936 62.9048 58.9936 62.9049C58.9937 62.9049 58.9938 62.9049 58.9939 62.9049C59.678 63.1395 60.1373 63.7829 60.1373 64.505V66.7256C60.1373 67.211 60.5308 67.6045 61.0163 67.6045Z" fill="#04FFB4"/>
<path fill-rule="evenodd" clip-rule="evenodd" d="M45.4336 53.1543C45.4336 53.6397 45.8271 54.0332 46.3125 54.0332H48.1918C49.0543 54.0332 49.8746 53.5771 50.4922 53.1105C50.7381 52.9247 50.9732 52.721 51.191 52.5109C51.2847 52.6482 51.3852 52.7831 51.4914 52.9118C51.8874 53.3918 52.5661 54.0332 53.4484 54.0332H55.6873C56.1727 54.0332 56.5662 53.6397 56.5662 53.1543V50.2289C56.5662 47.9685 54.7336 46.1358 52.473 46.1358H49.5267C47.2661 46.1358 45.4336 47.9685 45.4336 50.2289V53.1543ZM47.1914 52.2754V50.2289C47.1914 48.9393 48.237 47.8936 49.5267 47.8936H52.473C53.7628 47.8936 54.8084 48.9393 54.8084 50.2289V52.2754H53.4484C53.4134 52.2754 53.1916 52.2104 52.8472 51.7931C52.543 51.4244 52.3022 50.9688 52.1971 50.6787C52.0863 50.3727 51.8154 50.153 51.4931 50.1077C51.1708 50.0624 50.8499 50.1989 50.659 50.4625C50.3752 50.8542 49.9271 51.3343 49.4325 51.708C48.9127 52.1008 48.4749 52.2754 48.1918 52.2754H47.1914Z" fill="#04FFB4"/>
<path fill-rule="evenodd" clip-rule="evenodd" d="M45.4336 57.3609C45.4336 60.2372 47.7655 62.5688 50.6426 62.5688H51.3574C54.2345 62.5688 56.5664 60.2372 56.5664 57.3609V53.154C56.5664 52.6686 56.1729 52.2751 55.6875 52.2751C55.2021 52.2751 54.8086 52.6686 54.8086 53.154V57.3609C54.8086 59.2661 53.264 60.811 51.3574 60.811H50.6426C48.736 60.811 47.1914 59.2661 47.1914 57.3609V53.154C47.1914 52.6686 46.7979 52.2751 46.3125 52.2751C45.8271 52.2751 45.4336 52.6686 45.4336 53.154V57.3609Z" fill="#04FFB4"/>
</g>
</svg>
