<svg width="175" height="29" viewBox="0 0 175 29" fill="none" xmlns="http://www.w3.org/2000/svg">
<path d="M15.5 24.2866L23.0173 28.737C24.3939 29.5526 26.0785 28.347 25.7162 26.8221L23.7237 18.4532L30.3715 12.8149C31.5852 11.7865 30.9331 9.83611 29.339 9.71199L20.59 8.98503L17.1665 1.07714C16.5506 -0.359047 14.4494 -0.359047 13.8335 1.07714L10.41 8.9673L1.66097 9.69426C0.0669445 9.81837 -0.585157 11.7688 0.628476 12.7971L7.27628 18.4355L5.28375 26.8044C4.92147 28.3292 6.60607 29.5349 7.98273 28.7193L15.5 24.2866Z" fill="#FFBC11"/>
<path d="M51.5 24.2866L59.0173 28.737C60.3939 29.5526 62.0785 28.347 61.7162 26.8221L59.7237 18.4532L66.3715 12.8149C67.5852 11.7865 66.9331 9.83611 65.339 9.71199L56.59 8.98503L53.1665 1.07714C52.5506 -0.359047 50.4494 -0.359047 49.8335 1.07714L46.41 8.9673L37.661 9.69426C36.0669 9.81837 35.4148 11.7688 36.6285 12.7971L43.2763 18.4355L41.2838 26.8044C40.9215 28.3292 42.6061 29.5349 43.9827 28.7193L51.5 24.2866Z" fill="#FFBC11"/>
<path d="M87.5 24.2866L95.0173 28.737C96.3939 29.5526 98.0785 28.347 97.7162 26.8221L95.7237 18.4532L102.372 12.8149C103.585 11.7865 102.933 9.83611 101.339 9.71199L92.59 8.98503L89.1665 1.07714C88.5506 -0.359047 86.4494 -0.359047 85.8335 1.07714L82.41 8.9673L73.661 9.69426C72.0669 9.81837 71.4148 11.7688 72.6285 12.7971L79.2763 18.4355L77.2838 26.8044C76.9215 28.3292 78.6061 29.5349 79.9827 28.7193L87.5 24.2866Z" fill="#FFBC11"/>
<path d="M123.5 24.2866L131.017 28.737C132.394 29.5526 134.079 28.347 133.716 26.8221L131.724 18.4532L138.372 12.8149C139.585 11.7865 138.933 9.83611 137.339 9.71199L128.59 8.98503L125.166 1.07714C124.551 -0.359047 122.449 -0.359047 121.834 1.07714L118.41 8.9673L109.661 9.69426C108.067 9.81837 107.415 11.7688 108.628 12.7971L115.276 18.4355L113.284 26.8044C112.921 28.3292 114.606 29.5349 115.983 28.7193L123.5 24.2866Z" fill="#FFBC11"/>
<path d="M159.5 24.2866L167.017 28.737C168.394 29.5526 170.079 28.347 169.716 26.8221L167.724 18.4532L174.372 12.8149C175.585 11.7865 174.933 9.83611 173.339 9.71199L164.59 8.98503L161.166 1.07714C160.551 -0.359047 158.449 -0.359047 157.834 1.07714L154.41 8.9673L145.661 9.69426C144.067 9.81837 143.415 11.7688 144.628 12.7971L151.276 18.4355L149.284 26.8044C148.921 28.3292 150.606 29.5349 151.983 28.7193L159.5 24.2866Z" fill="#FFBC11"/>
</svg>
