<svg width="63" height="47" viewBox="0 0 63 47" fill="none" xmlns="http://www.w3.org/2000/svg">
<path d="M57.7624 47H5.23599C3.98844 47 2.8352 46.6605 1.89752 46.0165C0.181126 44.8417 0.17843 43.4406 0.329321 42.7077C0.587992 41.4628 1.60652 40.447 2.92951 40.1237L5.2791 39.5444C5.24946 39.4608 5.23329 39.3692 5.23329 39.2776V8.54156C5.23329 8.51192 5.2333 8.47959 5.23869 8.44995C5.4273 6.79823 6.40809 5.71235 8.07328 5.30818C8.13525 5.29201 8.19723 5.28662 8.2619 5.28662H19.1261C19.5653 5.28662 19.921 5.64229 19.921 6.0815C19.921 6.5207 19.5653 6.87637 19.1261 6.87637H8.36159C7.42122 7.12965 6.94429 7.66047 6.82573 8.58737V38.9947L7.25416 39.5309C7.42391 39.7437 7.47241 40.0267 7.38619 40.2853C7.29997 40.5413 7.08709 40.738 6.82303 40.8027L3.30943 41.6676C2.57922 41.8481 2.02147 42.3817 1.88674 43.0283C1.80591 43.4244 1.8113 44.028 2.79479 44.7016C3.46841 45.1624 4.31178 45.4076 5.23599 45.4076H57.7624C58.5141 45.4076 59.1851 45.2836 59.7563 45.0384C61.0227 44.4968 61.152 43.8636 61.1386 43.4352C61.117 42.6942 60.5377 42.0341 59.732 41.832L56.0163 40.9024C55.7145 40.8269 55.4855 40.5817 55.4262 40.2773C55.3697 39.9728 55.4963 39.6602 55.7496 39.4797L56.2669 39.1159V8.50115C55.9112 7.5473 55.2915 7.09732 54.2676 7.05151H43.8911C43.4519 7.05151 43.0963 6.69584 43.0963 6.25664C43.0963 5.81744 43.4519 5.46176 43.8911 5.46176H54.3026C56.0594 5.5399 57.2612 6.45603 57.8162 8.11314C57.8432 8.19397 57.8567 8.2802 57.8567 8.36642V39.5282C57.8567 39.5929 57.8486 39.6548 57.8351 39.7168L60.1174 40.288C61.6128 40.6626 62.6852 41.9371 62.7283 43.3894C62.7553 44.3405 62.3726 45.6501 60.3787 46.5042C59.6081 46.8329 58.727 47 57.757 47H57.7624Z" fill="#04FFB4"/>
<path d="M52.6976 43.1363H10.1435C9.70429 43.1363 9.34863 42.7806 9.34863 42.3414C9.34863 41.9022 9.70429 41.5465 10.1435 41.5465H52.6976C53.1368 41.5465 53.4924 41.9022 53.4924 42.3414C53.4924 42.7806 53.1368 43.1363 52.6976 43.1363Z" fill="#04FFB4"/>
<path d="M53.8004 39.0216H9.19039C8.75118 39.0216 8.39551 38.6659 8.39551 38.2267V8.77058C8.39551 8.33138 8.75118 7.97571 9.19039 7.97571H15.3123C15.7515 7.97571 16.1071 8.33138 16.1071 8.77058C16.1071 9.20978 15.7515 9.56546 15.3123 9.56546H9.98526V37.4292H53.0028V9.86724H47.7782C47.339 9.86724 46.9833 9.51157 46.9833 9.07237C46.9833 8.63316 47.339 8.27749 47.7782 8.27749H53.8004C54.2396 8.27749 54.5952 8.63316 54.5952 9.07237V38.2267C54.5952 38.6659 54.2396 39.0216 53.8004 39.0216Z" fill="#04FFB4"/>
<path d="M31.3229 28.9362C24.7699 28.9362 19.4375 23.6038 19.4375 17.0508C19.4375 10.4978 24.7699 5.16541 31.3229 5.16541C37.8759 5.16541 43.2083 10.4978 43.2083 17.0508C43.2083 23.6038 37.8759 28.9362 31.3229 28.9362ZM31.3229 6.75515C25.6456 6.75515 21.03 11.3735 21.03 17.0481C21.03 22.7227 25.6483 27.3437 31.3229 27.3437C36.9975 27.3437 41.6159 22.7254 41.6159 17.0481C41.6159 11.3708 36.9975 6.75515 31.3229 6.75515Z" fill="#04FFB4"/>
<path d="M26.2655 32.9887C25.9287 32.9887 25.6161 32.7731 25.5083 32.4363C25.3736 32.0187 25.6026 31.5687 26.023 31.434C26.4406 31.3019 26.8987 31.5256 27.0334 31.9459C27.1681 32.3636 26.9472 32.8108 26.5295 32.9456L26.5107 32.951C26.4298 32.9779 26.3463 32.9887 26.2655 32.9887Z" fill="#04FFB4"/>
<path d="M18.1107 35.826C17.9275 35.826 17.7469 35.7641 17.6041 35.6428C17.3886 35.465 17.2835 35.1874 17.3239 34.9126L18.4259 27.5432C15.8931 24.3664 14.5998 20.392 14.7803 16.3179C14.9743 11.8208 16.9089 7.66861 20.2286 4.62653C23.5482 1.58445 27.8432 0.0162606 32.3484 0.215653C41.6336 0.622521 48.8575 8.5066 48.4507 17.7918C48.0438 27.0743 40.1597 34.2983 30.8745 33.8887C29.3036 33.8213 27.757 33.5357 26.2669 33.0399L18.3721 35.7856C18.2858 35.8153 18.1969 35.8287 18.1107 35.8287V35.826ZM31.5939 1.78923C27.7731 1.78923 24.141 3.19845 21.3037 5.79864C18.2966 8.5524 16.5452 12.3139 16.3701 16.3853C16.203 20.1845 17.4479 23.8841 19.8783 26.8022C20.0238 26.9773 20.0885 27.2064 20.0534 27.43L19.0942 33.8456L26.0055 31.4421C26.1753 31.3828 26.3612 31.3828 26.531 31.4421C27.9537 31.9406 29.441 32.2289 30.9473 32.2936C39.3621 32.66 46.4918 26.1232 46.8636 17.7191C47.2327 9.31225 40.6905 2.17455 32.281 1.80271C32.052 1.79193 31.823 1.78654 31.5966 1.78654L31.5939 1.78923Z" fill="#04FFB4"/>
<path d="M33.1754 25.6247H29.7669C28.9127 25.6247 28.2175 24.9296 28.2175 24.0754V20.3301H24.4722C23.618 20.3301 22.9229 19.6349 22.9229 18.7807V15.3722C22.9229 14.518 23.618 13.8229 24.4722 13.8229H28.2175V10.0775C28.2175 9.22338 28.9127 8.5282 29.7669 8.5282H33.1754C34.0295 8.5282 34.7247 9.22338 34.7247 10.0775V13.8229H38.4701C39.3242 13.8229 40.0194 14.518 40.0194 15.3722V18.7807C40.0194 19.6349 39.3242 20.3301 38.4701 20.3301H34.7247V24.0754C34.7247 24.9296 34.0295 25.6247 33.1754 25.6247ZM29.0124 18.7376C29.4516 18.7376 29.8073 19.0933 29.8073 19.5325V24.0727L33.1727 24.0323L33.1323 19.5325C33.1323 19.0933 33.488 18.7376 33.9272 18.7376H38.4674L38.427 15.4126H33.9272C33.488 15.4126 33.1323 15.0569 33.1323 14.6177V10.0775L29.7642 10.1179L29.8046 14.6177C29.8046 15.0569 29.4489 15.4126 29.0097 15.4126H24.4695L24.5099 18.778L29.0097 18.7376H29.0124Z" fill="#04FFB4"/>
</svg>
