<svg width="72" height="58" viewBox="0 0 72 58" fill="none" xmlns="http://www.w3.org/2000/svg">
<path d="M10.6758 35.6627C10.4409 35.6627 10.2061 35.5793 10.0207 35.4093C9.8631 35.2671 6.12716 31.8711 3.24408 26.9239C-0.661815 20.2183 -1.04808 13.9176 2.12547 8.69839C6.85333 0.929853 16.7046 -2.13863 25.0417 1.56333C29.2412 3.42666 32.8628 6.77634 35.82 11.5289C38.7772 6.77634 42.3958 3.42975 46.5983 1.56333C54.9354 -2.13863 64.7867 0.929853 69.5146 8.69839C72.6881 13.9145 72.3018 20.2152 68.3959 26.9239C65.5129 31.8711 61.7769 35.2671 61.6193 35.4093C61.2176 35.7708 60.5965 35.7399 60.235 35.3382C59.8734 34.9365 59.9043 34.3154 60.306 33.9539C60.4513 33.8241 74.6071 20.8425 67.8397 9.71812C63.6248 2.78701 54.8335 0.0522619 47.3956 3.35559C43.1776 5.2282 39.5714 8.788 36.6791 13.9361C36.506 14.2451 36.1785 14.4367 35.8231 14.4367C35.4677 14.4367 35.1433 14.2451 34.9672 13.9361C32.0748 8.79109 28.4686 5.23129 24.2476 3.35559C16.8097 0.0522619 8.0183 2.78701 3.80339 9.71812C-2.97322 20.8549 11.1918 33.821 11.3371 33.9508C11.7388 34.3123 11.7728 34.9334 11.4081 35.3351C11.2135 35.5484 10.9477 35.6596 10.6789 35.6596L10.6758 35.6627Z" fill="#04FFB4"/>
<path d="M9.34101 42.1953C9.0629 42.1953 8.78479 42.0778 8.59012 41.8461C8.24093 41.432 8.29656 40.814 8.71063 40.4648L35.3134 18.1048C35.6718 17.8019 36.1941 17.7989 36.5587 18.0893L64.2955 40.3196C64.7189 40.6595 64.7869 41.2744 64.4469 41.6978C64.107 42.1211 63.4921 42.1891 63.0687 41.8492L35.9592 20.1226L9.9714 41.9666C9.78908 42.1211 9.5635 42.1953 9.34101 42.1953Z" fill="#04FFB4"/>
<path d="M37.8625 41.2217H34.5716C32.9925 41.2217 31.707 39.9362 31.707 38.3572V35.0662C31.707 33.4871 32.9925 32.2017 34.5716 32.2017H37.8625C39.4416 32.2017 40.7271 33.4871 40.7271 35.0662V38.3572C40.7271 39.9362 39.4416 41.2217 37.8625 41.2217ZM34.5747 34.167C34.0771 34.167 33.6723 34.5718 33.6723 35.0693V38.3602C33.6723 38.8578 34.0771 39.2626 34.5747 39.2626H37.8656C38.3631 39.2626 38.7679 38.8578 38.7679 38.3602V35.0693C38.7679 34.5718 38.3631 34.167 37.8656 34.167H34.5747Z" fill="#04FFB4"/>
<path d="M35.8292 57.4077C35.582 57.4077 35.3348 57.315 35.1463 57.1296L35.1154 57.1018L18.812 41.2989C18.4226 40.9219 18.4134 40.3008 18.7904 39.9115C19.1673 39.5221 19.7885 39.5128 20.1778 39.8898L35.8323 55.0623L51.4745 39.9022C51.8638 39.5252 52.4849 39.5345 52.8619 39.9238C53.2389 40.3132 53.2296 40.9343 52.8403 41.3113L36.5338 57.1172C36.5338 57.1172 36.5121 57.1388 36.509 57.1388C36.3205 57.3211 36.0764 57.4108 35.8323 57.4108L35.8292 57.4077Z" fill="#04FFB4"/>
</svg>
