<svg width="59" height="55" viewBox="0 0 59 55" fill="none" xmlns="http://www.w3.org/2000/svg">
<path d="M23.2287 18.7822C23.1002 18.3499 22.9367 17.9224 22.8479 17.4785C22.7311 16.892 22.4928 16.5907 21.8946 16.5089C21.0933 16.3991 20.4391 16.0696 20.0793 15.3243C19.6657 14.4692 19.6938 13.5627 20.0022 12.6936C20.2195 12.0815 20.9414 11.7263 21.6306 11.7754C21.8152 11.7871 21.9951 11.8291 22.1797 11.8408C22.5488 11.8642 22.7521 11.7006 22.8362 11.3245C22.9367 10.8665 23.0909 10.4203 23.2217 9.97171C23.0932 9.48341 22.9577 8.95772 22.8152 8.43438C22.675 7.92037 22.3012 7.70309 21.7965 7.65169C21.0909 7.5816 20.5162 7.25451 20.1681 6.64238C19.6447 5.71951 19.6541 4.72422 20.0606 3.77565C20.3316 3.14249 20.9367 2.91586 21.6166 2.93923C21.8012 2.94624 21.9834 2.99296 22.1657 2.99764C22.5979 3.01166 22.7638 2.86914 22.8339 2.44392C23.0605 1.06546 23.6563 0.574819 25.0698 0.691638C27.6655 0.906584 30.2612 0.962657 32.8592 0.792102C33.4106 0.75472 33.962 0.698647 34.5134 0.675283C35.6442 0.626219 36.3124 1.19629 36.4689 2.32243C36.5507 2.90652 36.7259 3.03736 37.3147 2.9953C37.6231 2.97194 37.9432 2.95325 38.2446 3.00465C38.7446 3.09109 39.1558 3.38314 39.3216 3.8621C39.6511 4.81534 39.6885 5.78727 39.1371 6.6821C38.7936 7.24049 38.2586 7.55356 37.5974 7.65169C36.7657 7.77318 36.5834 8.00448 36.4502 8.81053C36.3872 9.19837 36.2073 9.56985 36.0858 9.93199C36.2189 10.3946 36.3685 10.8782 36.497 11.3689C36.5951 11.7403 36.8311 11.8712 37.1932 11.8455C37.4666 11.8245 37.7469 11.7731 38.0156 11.8034C38.8427 11.8969 39.3941 12.3899 39.4805 13.2099C39.5389 13.7683 39.5343 14.3618 39.4104 14.9061C39.2188 15.7425 38.6347 16.2659 37.7796 16.4481C37.6348 16.4785 37.4876 16.4949 37.3451 16.5276C36.8474 16.635 36.5904 16.9224 36.4806 17.4107C36.3755 17.8873 36.2306 18.3546 36.1068 18.8125C36.2283 19.2354 36.3708 19.6817 36.4829 20.1373C36.5904 20.5765 36.768 20.7167 37.2212 20.6746C37.4782 20.6513 37.7352 20.6092 37.9899 20.6256C38.6955 20.6676 39.331 21.1629 39.4291 21.8592C39.5132 22.4503 39.5389 23.0811 39.4291 23.6629C39.2586 24.5483 38.6581 25.1044 37.7516 25.289C37.6254 25.3147 37.4993 25.3404 37.3731 25.3637C36.8498 25.4665 36.5858 25.7586 36.4783 26.2749C36.3802 26.7352 36.2376 27.1861 36.1091 27.6534C36.226 28.0669 36.3731 28.5319 36.4876 29.0038C36.5764 29.3706 36.7867 29.5412 37.1535 29.5178C37.3357 29.5061 37.518 29.4664 37.7025 29.4594C38.7048 29.429 39.4151 30.0201 39.5132 31.0061C39.5529 31.4079 39.5529 31.8191 39.5086 32.221C39.4034 33.1766 38.7095 33.9125 37.7609 34.1251C37.6348 34.1532 37.5086 34.1742 37.3825 34.1999C36.8077 34.319 36.5133 34.576 36.49 35.1508C36.4432 36.2349 35.5648 37.1204 34.3008 37.2068C31.149 37.4217 28.0019 37.4428 24.8525 37.1788C23.7521 37.0876 23.0091 36.3774 22.8526 35.2419C22.7521 34.5106 22.5722 34.3261 21.8269 34.1812C20.4718 33.9172 19.8316 33.1415 19.8293 31.7607C19.8293 31.5388 19.8246 31.3168 19.834 31.0972C19.8807 30.0902 20.5933 29.4267 21.6026 29.4571C21.7685 29.4617 21.932 29.4944 22.0956 29.5108C22.5769 29.5575 22.7451 29.3986 22.8502 28.929C22.9483 28.4898 23.1119 28.0646 23.2381 27.6627C23.1049 27.1861 22.9554 26.7001 22.8385 26.2072C22.7334 25.7562 22.4694 25.4689 21.9974 25.3707C21.8175 25.3334 21.633 25.3077 21.4554 25.2656C20.5536 25.0413 19.89 24.2563 19.834 23.3241C19.8106 22.9573 19.8153 22.5858 19.834 22.219C19.8854 21.2307 20.654 20.5602 21.647 20.6256C21.8316 20.6373 22.0115 20.684 22.196 20.691C22.5628 20.705 22.7638 20.5321 22.8455 20.1583C22.946 19.7004 23.1025 19.2565 23.2381 18.7939L23.2287 18.7822ZM29.5743 9.77779C31.0883 9.69602 32.6536 9.61658 34.2167 9.52546C35.004 9.47873 35.24 9.24276 35.3405 8.45073C35.469 7.44609 36.1488 6.72882 37.1418 6.54892C37.3054 6.51855 37.4712 6.5022 37.6301 6.45547C38.046 6.33398 38.289 6.04427 38.3287 5.62138C38.3614 5.27326 38.3497 4.92047 38.331 4.57235C38.3123 4.23825 38.1067 4.08171 37.7773 4.09106C37.6301 4.09573 37.4829 4.12143 37.3381 4.13311C36.2283 4.23591 35.4479 3.65649 35.3475 2.55373C35.2961 1.97431 34.9386 1.7617 34.4269 1.81076C31.2425 2.11683 28.0557 2.0958 24.8712 1.82011C24.2404 1.76637 24.0441 1.93459 23.967 2.56541C23.8385 3.62145 23.1353 4.20788 22.0769 4.13779C20.9811 4.0677 20.9507 4.09807 20.9531 5.18682C20.9531 5.20551 20.9531 5.2242 20.9531 5.24289C20.9601 6.07464 21.2451 6.40641 22.0722 6.53491C23.1796 6.7078 23.8432 7.39936 23.967 8.51148C24.0418 9.17501 24.3315 9.47406 24.9903 9.51378C26.4996 9.60723 28.0089 9.68667 29.572 9.77312L29.5743 9.77779ZM29.6888 18.6069C31.2308 18.5252 32.7751 18.4481 34.3195 18.3569C34.9783 18.3172 35.268 18.0275 35.3311 17.357C35.3942 16.6701 35.6839 16.1047 36.2703 15.7496C36.5904 15.5556 36.9806 15.4598 37.3497 15.3757C37.9268 15.2449 38.2773 14.9739 38.331 14.4809C38.3684 14.1351 38.3637 13.78 38.3357 13.4342C38.303 13.0417 38.1044 12.9015 37.6979 12.9249C37.4596 12.9389 37.2212 12.9856 36.9829 12.9833C36.1979 12.9693 35.5741 12.4623 35.3895 11.6983C35.3592 11.5745 35.3498 11.4436 35.3311 11.3175C35.2517 10.7731 35.0835 10.6352 34.5204 10.6609C34.3732 10.6679 34.226 10.6913 34.0788 10.6936C31.8873 10.7427 29.6981 10.8128 27.5066 10.8268C26.6071 10.8338 25.7053 10.7123 24.8058 10.6586C24.2801 10.6282 24.0605 10.7964 23.981 11.2567C23.7404 12.6445 23.1633 13.0908 21.7872 12.9506C21.1353 12.8852 20.9671 13.037 20.9578 13.7052C20.9578 13.7964 20.9578 13.8898 20.9578 13.9809C20.9578 14.9388 21.2101 15.2356 22.1353 15.3898C23.2007 15.565 23.8549 16.2659 23.974 17.3546C24.0488 18.0252 24.3221 18.3149 24.995 18.3546C26.558 18.4481 28.1211 18.5228 29.6935 18.6069H29.6888ZM29.5977 27.4338C29.5977 27.401 29.5977 27.3707 29.5977 27.338C30.4808 27.338 31.364 27.3613 32.2471 27.331C33.0018 27.3053 33.7541 27.2352 34.504 27.1557C34.9737 27.1067 35.2353 26.8263 35.3124 26.3824C35.5741 24.8824 35.9456 24.5016 37.4782 24.1722C38.0179 24.0554 38.303 23.7329 38.3427 23.1769C38.3544 23.011 38.3497 22.8451 38.3497 22.6792C38.345 21.8195 38.2352 21.719 37.3918 21.8101C36.3007 21.9269 35.5274 21.3732 35.3451 20.3429C35.1956 19.4994 35.1302 19.4667 34.2634 19.5064C32.5532 19.5859 30.8429 19.6934 29.1327 19.6957C27.6982 19.6957 26.2637 19.5649 24.8291 19.4948C24.217 19.4644 24.0371 19.6209 23.9647 20.2237C23.8338 21.3008 23.1212 21.8942 22.0395 21.8171C21.8923 21.8078 21.7474 21.7704 21.6003 21.7634C21.2194 21.7424 20.9951 21.9129 20.9671 22.2891C20.9437 22.6185 20.9414 22.9549 20.9764 23.282C21.0255 23.7423 21.3269 24.0507 21.7755 24.1558C21.9717 24.2026 22.1773 24.2189 22.3736 24.268C23.2264 24.4829 23.8642 25.2049 23.9623 26.0506C24.0628 26.9151 24.2731 27.1487 25.1305 27.2025C26.6188 27.2959 28.1094 27.359 29.5977 27.4361V27.4338ZM29.7308 36.2933C31.2798 36.1998 32.8429 36.1227 34.4059 36.0059C35.0461 35.9568 35.2143 35.6858 35.3475 35.055C35.4409 34.6204 35.6255 34.1859 35.8615 33.8097C36.1979 33.277 36.7797 33.1088 37.3778 33.0083C38.0553 32.8939 38.3334 32.5691 38.352 31.8916C38.3567 31.707 38.3567 31.5224 38.352 31.3378C38.3334 30.7023 38.1675 30.5575 37.539 30.6252C36.1792 30.7701 35.5531 30.2958 35.3264 28.9407C35.2493 28.4875 35.0858 28.3286 34.6279 28.3426C34.1302 28.3566 33.6349 28.4127 33.1396 28.4431C30.4294 28.609 27.7239 28.5809 25.0184 28.3543C24.1539 28.2819 24.0745 28.366 23.9577 29.2141C23.8408 30.0645 23.1423 30.672 22.2778 30.665C22.0395 30.665 21.8012 30.6112 21.5629 30.6019C21.2428 30.5879 21.0045 30.7351 20.9811 31.0621C20.9531 31.4453 20.9437 31.8402 21.0021 32.2186C21.0676 32.6298 21.3503 32.8985 21.7708 32.992C21.932 33.027 22.0979 33.0481 22.2591 33.0854C23.2497 33.3074 23.8595 33.992 23.9693 34.9943C24.0464 35.6905 24.2801 35.9662 24.9646 36.0153C26.544 36.1251 28.1281 36.2022 29.7308 36.2956V36.2933Z" fill="#04FFB4"/>
<path d="M44.7613 54.8348C44.4552 54.5708 44.1959 54.3465 43.9132 54.1035C44.5463 53.3512 45.1491 52.634 45.7519 51.9214C46.857 50.6153 47.9644 49.3093 49.0719 48.0033C49.691 47.272 50.3102 46.543 50.9316 45.8141C52.5227 43.9497 53.504 41.7909 54.0086 39.4054C55.0296 34.5925 56.0436 29.7796 57.0599 24.9666C57.0856 24.8405 57.1183 24.7143 57.1324 24.5858C57.2095 23.9269 56.88 23.4106 56.3029 23.2751C55.7072 23.1373 55.1324 23.4807 54.9572 24.1255C54.6698 25.1933 54.4105 26.268 54.1371 27.3381C53.6628 29.2142 53.1979 31.0926 52.7096 32.964C52.0694 35.4055 50.6069 37.1578 48.2541 38.1017C47.663 38.34 47.1701 38.6087 46.9037 39.2068C46.8617 39.3026 46.7776 39.3821 46.6841 39.5035C46.378 39.3096 46.0883 39.1251 45.7519 38.9101C45.9038 38.6671 46.0323 38.4522 46.1678 38.2396C47.0673 36.8237 47.9714 35.4126 48.8616 33.992C48.9948 33.7794 49.1139 33.5318 49.1536 33.2888C49.2471 32.7117 48.9177 32.1743 48.3897 31.9547C47.8196 31.7164 47.2121 31.873 46.8173 32.4056C46.0486 33.4407 45.2986 34.492 44.5416 35.5364C43.9903 36.298 43.4576 37.0714 42.8875 37.8214C42.2099 38.7162 41.7497 39.7068 41.4319 40.7792C40.4016 44.2417 39.3619 47.6995 38.3269 51.1574C38.2802 51.3139 38.2241 51.4704 38.1493 51.6947C37.7965 51.5943 37.4578 51.4985 37.0723 51.3863C37.1634 51.0873 37.2381 50.8466 37.3106 50.6037C38.3549 47.1084 39.3736 43.6039 40.4623 40.1227C40.7334 39.2559 41.1352 38.3938 41.6445 37.6438C43.0137 35.6345 44.4692 33.6813 45.9061 31.7188C46.5416 30.8496 47.5673 30.5085 48.5485 30.7889C49.5158 31.0646 50.219 31.9033 50.3148 32.908C50.3709 33.4991 50.2097 34.0341 49.8896 34.5317C49.462 35.1906 49.0485 35.8588 48.6677 36.5621C49.3406 36.2817 49.8476 35.7957 50.3102 35.2607C50.934 34.5364 51.3498 33.6977 51.5858 32.7725C52.3311 29.845 53.0741 26.9152 53.8147 23.9854C54.0624 23.0017 54.6348 22.3335 55.6464 22.1396C57.2071 21.8406 58.5739 23.1793 58.2702 24.754C57.8473 26.9619 57.3567 29.1558 56.8894 31.3543C56.2726 34.2561 55.6768 37.1625 55.025 40.0549C54.4479 42.6156 53.2633 44.8749 51.5344 46.8631C49.7214 48.9472 47.9644 51.0756 46.1818 53.1853C45.7309 53.718 45.2729 54.2437 44.7683 54.8325L44.7613 54.8348Z" fill="#04FFB4"/>
<path d="M13.3067 38.8959C13.1315 39.0198 13.017 39.1109 12.8932 39.1903C12.739 39.2908 12.5825 39.3819 12.4376 39.4707C12.3839 39.4497 12.3301 39.4473 12.3208 39.424C11.9633 38.653 11.3021 38.3165 10.5475 37.9894C8.43306 37.0712 7.03358 35.4521 6.43546 33.2186C5.66913 30.3542 4.96355 27.4734 4.23227 24.5997C4.19021 24.4385 4.15984 24.2749 4.11077 24.1184C3.91218 23.4782 3.35379 23.1348 2.75334 23.2796C2.16224 23.4221 1.80945 23.9875 1.94028 24.6511C2.13888 25.6627 2.36317 26.6697 2.57811 27.679C3.41687 31.6251 4.25796 35.5713 5.09205 39.5197C5.60138 41.9309 6.64574 44.071 8.24615 45.9471C10.4587 48.5381 12.6596 51.1385 14.8628 53.7366C14.9562 53.8464 15.0357 53.9655 15.1501 54.1174C14.8721 54.3557 14.6104 54.5777 14.309 54.8347C14.0801 54.573 13.8721 54.344 13.6735 54.1104C11.7507 51.8278 9.87694 49.5007 7.89102 47.2765C6.04529 45.2111 4.71589 42.9005 4.07339 40.2113C3.73929 38.8142 3.46126 37.403 3.16454 35.9988C2.39821 32.3751 1.63656 28.7514 0.867889 25.13C0.716025 24.4174 0.711352 23.7329 1.14358 23.1137C1.69029 22.3311 2.45195 21.9899 3.39584 22.1488C4.33974 22.3077 4.96121 22.8754 5.20186 23.8006C5.77427 25.9922 6.31865 28.193 6.87704 30.3892C7.0803 31.1929 7.27189 31.999 7.4915 32.798C7.94242 34.4475 8.87931 35.7348 10.4213 36.5736C10.3629 36.4544 10.3138 36.3283 10.2438 36.2161C9.86292 35.6063 9.46107 35.0105 9.09426 34.3937C8.43306 33.2816 8.73679 31.8798 9.78115 31.1532C10.8582 30.4032 12.3021 30.5878 13.0918 31.6532C14.5964 33.6812 16.0917 35.7161 17.5169 37.7978C18.0075 38.5128 18.3626 39.3562 18.622 40.1879C19.7271 43.7416 20.7761 47.3115 21.8415 50.8769C21.8882 51.0334 21.9186 51.1923 21.97 51.4119C21.6172 51.5123 21.2901 51.6058 20.9373 51.7063C20.8719 51.5287 20.8158 51.3955 20.7738 51.26C19.6663 47.5732 18.5823 43.8771 17.4398 40.202C17.2202 39.494 16.8393 38.8095 16.4141 38.1974C15.1104 36.3213 13.7506 34.4849 12.4119 32.6321C12.3465 32.5433 12.2834 32.4522 12.211 32.3681C11.725 31.8074 10.9867 31.6976 10.433 32.0994C9.85825 32.5176 9.71106 33.2162 10.1153 33.8657C10.982 35.2582 11.8722 36.6343 12.753 38.0198C12.9306 38.2978 13.1035 38.5782 13.3044 38.9006L13.3067 38.8959Z" fill="#04FFB4"/>
<path d="M15.6011 18.7751C15.6011 19.2424 15.2366 19.6185 14.774 19.6302C14.2834 19.6419 13.8792 19.2541 13.8909 18.7798C13.9002 18.3312 14.2951 17.948 14.746 17.9434C15.1992 17.941 15.6034 18.3312 15.6034 18.7751H15.6011Z" fill="#04FFB4"/>
<path d="M48.2571 9.8105C48.2454 10.2497 47.8365 10.6376 47.3879 10.6329C46.9393 10.6306 46.5352 10.231 46.5352 9.79181C46.5352 9.31519 46.9417 8.93203 47.4347 8.94838C47.8949 8.96474 48.2687 9.35491 48.2571 9.8105Z" fill="#04FFB4"/>
<path d="M20.3837 19.6302C19.9118 19.6279 19.5403 19.2634 19.5333 18.8008C19.5263 18.3289 19.9375 17.927 20.4141 17.941C20.8697 17.955 21.2529 18.3569 21.2342 18.8008C21.2155 19.2798 20.8533 19.6326 20.3814 19.6279L20.3837 19.6302Z" fill="#04FFB4"/>
<path d="M39.7751 9.75905C39.7868 10.2357 39.4434 10.6142 38.9761 10.6329C38.4901 10.6515 38.0859 10.266 38.0859 9.78709C38.0859 9.31281 38.4387 8.95768 38.9177 8.95067C39.4037 8.94366 39.7611 9.28243 39.7751 9.75905Z" fill="#04FFB4"/>
<path d="M42.597 9.75438C42.6087 10.2474 42.2325 10.6329 41.7442 10.6305C41.284 10.6305 40.9102 10.2497 40.9102 9.78943C40.9102 9.31281 41.2606 8.95768 41.7372 8.95067C42.2185 8.94366 42.5853 9.28477 42.597 9.75438Z" fill="#04FFB4"/>
<path d="M18.4085 18.7798C18.4155 19.2587 18.0674 19.6185 17.5908 19.6279C17.0931 19.6372 16.7076 19.2587 16.717 18.7728C16.7263 18.3102 17.0978 17.948 17.5697 17.9457C18.03 17.9434 18.4015 18.3148 18.4085 18.7798Z" fill="#04FFB4"/>
<path d="M12.7693 18.8196C12.7553 19.3009 12.4001 19.635 11.9118 19.628C11.4305 19.621 11.0801 19.2658 11.0801 18.7916C11.0801 18.3009 11.4819 17.9224 11.9656 17.9481C12.4375 17.9738 12.781 18.3453 12.7669 18.8196H12.7693Z" fill="#04FFB4"/>
<path d="M45.394 9.77541C45.394 10.266 45.0506 10.6258 44.5786 10.6305C44.116 10.6375 43.7352 10.2614 43.7305 9.79644C43.7258 9.32215 44.0833 8.95768 44.5599 8.95067C45.0552 8.94366 45.3963 9.27776 45.394 9.77307V9.77541Z" fill="#04FFB4"/>
<path d="M50.2103 8.97412C50.6705 8.97412 51.0584 9.34794 51.0584 9.79652C51.0584 10.2498 50.6799 10.6283 50.2196 10.6353C49.7594 10.6423 49.3739 10.2661 49.3692 9.81054C49.3645 9.36897 49.757 8.97879 50.2103 8.97646V8.97412Z" fill="#04FFB4"/>
<path d="M30.203 3.66357V6.5046H29.126V3.66357H30.203Z" fill="#04FFB4"/>
<path d="M29.124 12.6072H30.2034V15.4622H29.124V12.6072Z" fill="#04FFB4"/>
<path d="M29.1152 24.3988V21.5508H30.1923V24.3988H29.1152Z" fill="#04FFB4"/>
<path d="M30.1988 33.3775H29.1357V30.5038H30.1988V33.3775Z" fill="#04FFB4"/>
</svg>
