<svg width="54" height="54" viewBox="0 0 54 54" fill="none" xmlns="http://www.w3.org/2000/svg">
<g clip-path="url(#clip0_4221_180)">
<path d="M23.7272 13.524C24.7804 16.6256 28.7394 18.3441 31.4415 17.0071C31.8874 16.7875 32.1372 16.4792 32.2141 15.9937C32.314 15.3657 32.6254 14.8802 33.3173 14.8725C34.1244 14.861 34.3935 15.516 34.5665 16.1325C35.1814 18.3711 35.5581 20.6443 35.2583 22.9754C34.9547 25.3258 34.628 27.6761 34.3205 30.0303C33.9399 32.9355 35.1584 34.9968 37.676 36.3646C37.9566 36.5188 38.2372 36.6729 38.4986 36.8578C39.0021 37.2085 39.4018 37.6631 39.0905 38.3066C38.7484 39.0117 38.1142 39.108 37.4569 38.7959C35.266 37.7479 33.2634 36.3993 32.487 33.9873C31.5146 30.9781 29.2929 29.7529 26.4601 29.4331C22.9931 29.0439 19.6991 29.6835 16.7779 31.7526C16.1014 32.2304 15.3442 32.8969 14.6023 31.9799C13.9374 31.1554 14.6023 30.5158 15.225 30.0611C16.0745 29.4369 15.8707 28.8513 15.4249 28.0922C13.0572 24.0504 6.65358 21.1953 2.12571 22.2318C1.30316 22.4206 0.365299 22.8598 0.0616475 21.6962C-0.222786 20.6174 0.77273 20.3168 1.553 20.0394C3.42872 19.3767 5.33135 19.4306 7.22629 19.9662C11.4159 21.1491 15.0559 23.1796 17.4005 27.0095C18.0386 28.0498 18.6613 28.1153 19.7567 27.7878C23.6081 26.6319 27.4441 26.3815 31.0649 28.6162C31.7106 29.0131 32.1026 29.0285 32.218 28.1269C32.5139 25.7766 33.0251 23.457 33.0098 21.0605C33.0021 19.6657 32.4178 19.2187 31.1302 19.4037C30.4345 19.5038 29.7272 19.6156 29.0315 19.5963C24.7958 19.4923 22.2282 17.5427 21.0636 13.4084C20.5946 11.7439 20.118 10.0909 19.5184 8.46496C18.692 6.23021 19.2071 4.61965 20.9944 3.1478C26.2679 -1.1984 31.9182 -1.02887 36.9457 3.55622C46.5741 12.3411 51.4672 23.5341 53.5274 36.1758C53.5581 36.3646 53.5466 36.565 53.585 36.7499C54.8842 42.83 53.3198 45.9664 46.5588 49.0218C40.0014 51.9848 32.929 52.8979 25.8451 53.6531C19.6145 54.3158 13.4454 54.0615 7.36466 52.4664C5.18913 51.8961 3.08279 51.1294 1.10329 50.0544C0.422954 49.6845 -0.330409 49.2029 0.153896 48.2627C0.580546 47.4343 1.33775 47.6617 2.00271 47.9815C11.5235 52.5858 21.5094 52.0464 31.5568 50.6015C35.8695 49.9812 40.1321 49.0873 44.2295 47.5576C46.4665 46.7215 48.5767 45.6658 50.2333 43.8742C51.2442 42.7838 51.7977 41.5046 51.644 40.0211C50.537 29.2019 47.2007 19.2303 40.4281 10.5764C38.6446 8.29928 36.6113 6.26103 34.4204 4.3692C30.2884 0.80131 25.2763 2.54673 22.3166 5.04348C20.8329 6.29571 21.79 9.99846 23.6965 10.7498C24.2923 10.9848 24.9111 11.1544 25.5299 11.3239C26.3179 11.5397 27.0482 11.5281 27.5825 10.7575C28.1436 9.94837 27.5479 9.46289 27.1135 8.91961C26.5985 8.28001 26.1718 7.5672 27.0136 6.92375C27.7477 6.36121 28.3051 6.91219 28.8317 7.42464C30.0386 8.59211 30.7266 9.89443 29.8041 11.5358C28.9162 13.1155 27.6517 14.048 25.7144 13.7243C25.1033 13.6241 24.5152 13.2581 23.7196 13.5163L23.7272 13.524Z" fill="#04FFB4"/>
</g>
<defs>
<clipPath id="clip0_4221_180">
<rect width="54" height="54" fill="white"/>
</clipPath>
</defs>
</svg>
