<svg width="21" height="22" viewBox="0 0 21 22" fill="none" xmlns="http://www.w3.org/2000/svg">
<path d="M19.581 5.66326C18.9176 5.9648 18.2025 6.16295 17.4616 6.25772C18.2198 5.80111 18.8056 5.07742 19.0813 4.20726C18.3662 4.63803 17.5736 4.93957 16.7379 5.11188C16.0573 4.37095 15.101 3.94019 14.0155 3.94019C11.9908 3.94019 10.3367 5.59434 10.3367 7.63619C10.3367 7.92911 10.3712 8.21342 10.4315 8.48049C7.36439 8.32542 4.63331 6.85219 2.81546 4.6208C2.49669 5.16357 2.31577 5.80111 2.31577 6.47311C2.31577 7.7568 2.96192 8.89403 3.96131 9.54018C3.34962 9.54018 2.781 9.36788 2.28131 9.10942V9.13526C2.28131 10.9273 3.55639 12.4263 5.245 12.7623C4.70286 12.9107 4.1337 12.9313 3.58223 12.8226C3.81623 13.5571 4.27451 14.1997 4.89265 14.6602C5.51078 15.1208 6.25769 15.376 7.02839 15.39C5.72197 16.4243 4.1026 16.9833 2.43639 16.9753C2.14346 16.9753 1.85054 16.958 1.55762 16.9236C3.19454 17.9746 5.14162 18.5863 7.22654 18.5863C14.0155 18.5863 17.7459 12.9519 17.7459 8.06695C17.7459 7.90326 17.7459 7.74818 17.7373 7.58449C18.461 7.06757 19.0813 6.4128 19.581 5.66326Z" fill="white"/>
</svg>
